<svg width="375" height="813" viewBox="0 0 375 813" fill="none" xmlns="http://www.w3.org/2000/svg">
<rect y="0.25" width="375" height="820.5" fill="url(#paint0_linear_0_11335)"/>
<g filter="url(#filter0_d_0_11335)">
<path fill-rule="evenodd" clip-rule="evenodd" d="M163.815 229.882C151.15 251.097 138.745 310.636 208.312 337.34C253.897 354.839 284.549 331.872 315.661 320.925C346.772 309.977 394.913 321.752 417.474 262.979C440.034 204.206 396.452 151.754 345.536 144.41C294.255 137.008 277.035 159.745 244.295 181.114C211.554 202.482 191.826 182.984 163.815 229.882ZM303.304 347.376C306.599 356.716 321.068 358.48 329.557 355.009C340.612 350.49 344.016 340.973 342.005 336.383C338.844 329.154 329.164 325.466 318.331 328.175C308.79 330.556 300.934 340.615 303.304 347.376ZM260.98 133.03C253.982 122.365 229.395 121.265 213.026 131.795C196.657 142.325 186.131 159.019 190.611 173.024C193.194 181.028 208.855 192.01 238.548 175.302C261.997 162.134 267.977 143.695 260.98 133.03Z" fill="url(#paint1_linear_0_11335)"/>
</g>
<path d="M224.71 123.583C223.959 126.098 223.209 128.613 222.458 131.128C222.351 131.476 222.244 131.824 222.27 132.172C222.297 133.242 223.289 134.072 224.335 134.259C225.38 134.446 226.453 134.179 227.471 133.884C227.739 134.955 229.026 135.41 230.125 135.624C235.005 136.534 240.179 135.891 244.683 133.804C242.752 131.021 241.171 128.024 239.991 124.84C236.157 125.001 232.324 125.188 228.49 125.349C227.82 125.375 227.123 125.402 226.479 125.188C225.836 124.947 225.273 124.412 225.219 123.743" fill="#0E538C"/>
<path d="M269.212 156.683L270.338 155.371C270.338 155.371 271.142 154.703 272.295 153.204C272.59 152.829 272.805 152.375 272.965 151.92C273.153 151.358 273.368 150.609 273.341 150.154C273.314 149.592 273.984 149.324 274.306 149.725C274.628 150.127 274.681 151.652 273.984 153.284C273.287 154.917 275.78 153.632 276.692 153.151C277.603 152.696 280.499 151.411 280.874 151.572C281.41 151.813 281.249 152.428 280.311 152.883C279.373 153.338 276.719 154.836 276.96 155.291C277.228 155.746 281.839 153.365 281.839 153.365C281.839 153.365 282.751 152.696 283.072 153.231C283.662 154.194 278.542 156.388 278.059 156.576C277.711 156.709 277.979 157.245 278.354 157.057C278.729 156.897 282.912 154.569 283.528 155.532C283.984 156.281 279.346 157.378 278.756 158.342C278.166 159.305 282.188 157.164 282.617 157.887C282.777 158.154 282.858 158.395 280.338 159.278C277.791 160.188 270.445 161.579 270.445 161.579L269.266 156.549" fill="#FF957E"/>
<path d="M248.49 144.802C248.49 144.802 252.672 156.87 253.959 156.977C262.779 157.78 272.376 153.98 272.376 153.98L274.789 160.776C274.789 160.776 249.803 171.935 244.442 161.178C238.731 149.779 239.026 147.986 239.026 147.986L248.49 144.802Z" fill="#FCD2B1"/>
<path d="M247.927 213.036C243.45 233.559 214.014 252.638 214.014 252.638L209 246.51C209 246.51 232.673 225.452 233.664 216.086C234.683 206.721 226.828 192.03 226.828 192.03L234.978 188.579L247.927 213.036Z" fill="#0B4870"/>
<path d="M237.98 138.3C237.846 137.443 238.168 133.911 238.168 133.911C238.168 133.911 241.412 133.563 241.599 130.352C241.787 127.141 241.599 119.756 241.599 119.756L235.701 116.866L229.214 121.763L230.205 137.791L237.98 138.3Z" fill="#FFE3CA"/>
<path d="M229.67 124.278C229.67 124.278 234.978 123.77 235.889 118.98L241.627 124.278C241.627 124.278 243.369 120.719 240.179 117.428C236.989 114.137 234.817 114.806 233.557 114.806C232.404 114.806 226.506 116.064 224.764 122.726C224.63 123.208 224.523 124.412 224.442 124.947L229.67 124.278Z" fill="#0E538C"/>
<path d="M238.141 133.938C238.141 133.938 235.969 133.965 233.878 132.493C233.878 132.493 234.843 134.848 238.06 134.714L238.141 133.938Z" fill="#FCD2B1"/>
<path d="M244.817 174.45C244.817 175.601 244.415 177.18 244.415 177.18L221.627 183.735C221.627 183.735 219.992 173.46 224.147 167.734C226.051 165.112 225.622 161.419 224.844 158.261L222.164 147.478L225.756 137.336L240.099 138.3C240.099 138.3 248.409 137.47 251.305 148.441L245.97 156.442L245.916 159.466L244.817 174.45Z" fill="#55B3FF"/>
<path d="M222.592 170.437C222.35 170.437 218.222 179.668 221.948 185.154C222.297 185.662 223.155 186.92 224.307 188.712C229.83 197.168 242.43 217.05 242.859 219.966C243.368 223.498 253.556 260.559 253.556 260.559L261.143 259.355L254.95 217.317L244.816 174.45L222.592 170.437Z" fill="#0E538C"/>
<path d="M235.755 118.606C235.755 118.606 236.935 120.88 236.425 122.593L241.572 123.931C241.572 123.904 242.752 117.402 235.755 118.606Z" fill="#0E538C"/>
<path d="M224.71 124.466C224.71 124.466 224.12 131.851 229.83 133.162L229.455 124.251L224.71 124.466Z" fill="#0E538C"/>
<path d="M248.087 158.877L260.875 164.256L281.813 164.71L292 147.451L270.473 146.006L261.143 162.704L248.168 157.673L248.087 158.877Z" fill="#F2F2F2"/>
<path d="M250.393 146.193L253.985 154.943L245.943 158.93L245.192 151.277L250.393 146.193Z" fill="#55B3FF"/>
<path d="M234.897 136.694L237.819 137.952L237.23 143.839L233.53 137.23L234.897 136.694Z" fill="#FFE3CA"/>
<path d="M261.84 259.354C261.84 259.354 268.515 261.121 266.853 261.629C265.191 262.137 253.637 260.88 253.637 260.88L253.261 259.569L261.84 259.354Z" fill="#0E538C"/>
<path d="M253.636 260.88L251.277 254.538H261.518L261.84 259.355L253.636 260.88Z" fill="#0E538C"/>
<path d="M228.839 128.319C228.866 127.784 228.866 127.222 228.678 126.74C228.49 126.232 228.061 125.803 227.525 125.75C226.909 125.696 226.319 126.205 226.212 126.794C226.104 127.409 226.48 128.024 227.016 128.346C227.552 128.64 228.222 128.64 228.812 128.399" fill="#FFE3CA"/>
<path d="M232.484 174.878C232.484 174.878 232.779 145.257 231.734 143.009C231.734 143.009 230.634 137.443 226.372 137.336L228.275 137.497C228.275 137.497 232.136 137.229 233.262 144.802C234.361 152.375 234.307 175.119 234.307 175.119L232.484 174.878Z" fill="#0E538C"/>
<path d="M240.742 175.922C240.742 175.922 241.895 141.885 240.983 138.3H242.136C242.136 138.3 243.155 141.216 242.967 149.378C242.833 154.275 242.967 175.922 242.967 175.922H240.742Z" fill="#0E538C"/>
<path d="M254.333 160.83C254.333 160.83 259.91 164.362 261.143 164.335C262.349 164.309 265.861 164.228 265.486 164.71C265.11 165.192 261.143 165.861 261.143 165.861L254.333 160.83Z" fill="#FFE3CA"/>
<path d="M253.932 168.269C253.932 168.269 227.525 175.36 223.906 163.908C220.072 151.759 220.018 154.917 220.018 154.917L228.302 146.943C228.302 146.943 232.753 160.964 234.013 161.285C240.956 163.051 248.838 161.928 251.626 161.419C251.948 161.152 252.296 160.857 252.725 160.456C253.074 160.135 253.369 159.733 253.583 159.305C253.851 158.77 254.173 158.074 254.226 157.619C254.307 157.058 255.004 156.897 255.245 157.325C255.486 157.753 255.326 159.278 254.36 160.777C254.36 160.777 260.661 164.817 261.17 165.781L253.932 168.269Z" fill="#FFE3CA"/>
<path d="M225.755 137.336C225.755 137.336 219.723 138.487 219.482 147.959C219.241 157.432 223.074 164.683 223.074 164.683L233.315 159.359L225.755 137.336Z" fill="#55B3FF"/>
<path d="M293.167 243.806C293.167 243.806 291.486 250.489 292.74 249.286C293.967 248.083 298.503 237.418 298.503 237.418L297.542 236.456L293.167 243.806Z" fill="#0B4870"/>
<path d="M298.476 237.418L294.074 232.286L289.139 241.187L293.167 243.806L298.476 237.418Z" fill="#0B4870"/>
<path d="M333.745 221.594H306.214C304.933 221.594 303.893 220.551 303.893 219.268C303.893 217.985 304.933 216.943 306.214 216.943H333.719C334.999 216.943 336.04 217.985 336.04 219.268C336.066 220.551 335.026 221.594 333.745 221.594Z" fill="#D3D3D3"/>
<path d="M314.277 250.978V248.625H337.968V250.978H314.277Z" fill="#0B4870"/>
<path d="M316.458 250.516C316.671 251.745 315.844 252.895 314.617 253.082C313.39 253.296 312.243 252.467 312.056 251.237C311.843 250.008 312.67 248.858 313.897 248.671C315.124 248.457 316.271 249.286 316.458 250.516Z" fill="#0B4870"/>
<rect x="324.835" y="220.07" width="2.34768" height="29.5098" fill="#0B4870"/>
<path d="M340.148 250.516C340.362 251.745 339.535 252.895 338.308 253.082C337.08 253.296 335.933 252.467 335.746 251.237C335.533 250.008 336.36 248.858 337.587 248.671C338.814 248.457 339.962 249.286 340.148 250.516Z" fill="#0B4870"/>
<path d="M340.948 221.594H314.964C313.203 221.594 311.922 219.856 312.429 218.119L324.835 175.244C325.155 174.095 326.195 173.293 327.369 173.293H353.354C355.114 173.293 356.395 175.03 355.888 176.768L343.483 219.643C343.162 220.819 342.122 221.594 340.948 221.594Z" fill="#D3D3D3"/>
<path d="M337.373 221.594H314.723C312.963 221.594 311.682 219.856 312.189 218.119L324.594 175.244C324.914 174.095 325.955 173.293 327.129 173.293H349.779C351.539 173.293 352.82 175.03 352.313 176.768L339.908 219.643C339.587 220.819 338.547 221.594 337.373 221.594Z" fill="#F2F2F2"/>
<path d="M340.949 221.594H313.417C312.136 221.594 311.096 220.551 311.096 219.268C311.096 217.985 312.136 216.943 313.417 216.943H340.922C342.202 216.943 343.243 217.985 343.243 219.268C343.27 220.551 342.229 221.594 340.949 221.594Z" fill="#D3D3D3"/>
<path d="M318.192 185.188L312.083 201.466L313.524 204.647L321.767 203.204L324.115 185.803L318.192 185.188Z" fill="#FCD2B1"/>
<path d="M321.9 177.276C321.9 177.276 317.071 179.815 316.004 188.155L322.38 191.657L321.9 177.276Z" fill="#2A94F4"/>
<path d="M329.69 174.095L322.087 177.303L316.084 204.059L336.146 211.971L346.844 181.446C346.844 181.446 345.11 175.084 335.079 173.454L329.69 174.095Z" fill="#2A94F4"/>
<path d="M349.966 205.502C349.966 205.155 349.752 203.043 349.646 202.696L346.338 181.499C345.697 178.585 342.443 177.115 339.855 178.559C337.934 179.628 337.08 181.9 337.827 183.958L341.749 202.161L349.966 205.502Z" fill="#FFE3CA"/>
<path d="M345.457 200.985L323.074 199.248L321.953 203.204L343.509 210.501C346.817 211.623 350.205 209.004 349.965 205.502C349.805 203.097 347.884 201.172 345.457 200.985Z" fill="#FFE3CA"/>
<path d="M344.096 177.917C344.096 177.917 346.951 179.147 348.178 186.578L338.094 189.678C338.094 189.678 331.504 182.274 338.547 177.329L344.096 177.917Z" fill="#2A94F4"/>
<path d="M316.058 203.444C316.885 205.636 321.02 205.743 323.234 204.914C325.422 204.086 327.69 202.829 326.863 200.611C326.036 198.419 322.381 197.109 319.98 197.644C317.072 198.312 315.231 201.226 316.058 203.444Z" fill="#FFE3CA"/>
<path d="M328.25 206.438L312.27 204.38L312.51 202.562L328.49 204.621C328.997 204.674 329.344 205.129 329.264 205.636C329.183 206.144 328.73 206.492 328.25 206.438Z" fill="#F2F2F2"/>
<path d="M314.377 204.647L293.194 201.921C291.967 201.761 291.007 200.825 290.847 199.595L288.632 184.199C288.446 182.836 289.593 181.66 290.953 181.847L310.402 184.359C311.229 184.466 311.869 185.108 311.976 185.91L314.377 204.647Z" fill="#F2F2F2"/>
<path d="M289.059 245.303L283.564 247.575L280.095 247.843C278.495 247.949 277.161 249.126 276.841 250.676L276.681 251.398L295.515 253.75L295.889 246.159L289.059 245.303Z" fill="#0B4870"/>
<path d="M295.889 246.159L297.73 237.899L290.927 236.964L289.06 245.304L295.889 246.159Z" fill="#FFE3CA"/>
<path d="M336.146 211.971C336.146 211.971 335.612 216.542 327.422 217.157H307.734L298.45 243.111L288.686 241.534L298.45 203.417L320.833 205.903L336.146 211.971Z" fill="#0B4870"/>
<path d="M273.293 230.388L267.397 229.506L264.275 227.929C262.835 227.207 261.101 227.528 260.007 228.677L259.5 229.212L274.44 240.92L278.655 234.612L273.293 230.388Z" fill="#0E538C"/>
<path d="M278.709 234.638L283.831 228.116L278.442 223.812L273.293 230.388L278.709 234.638Z" fill="#FFE3CA"/>
<path d="M316.085 204.059L300.905 199.515C300.264 199.328 299.651 199.087 299.011 198.874C297.703 198.366 294.395 197.671 291.834 201.6C288.553 206.652 275.4 225.63 275.4 225.63L283.431 231.564L300.958 209.191C302.425 207.16 304.773 205.957 307.281 205.957L320.833 205.93L316.085 204.059Z" fill="#0E538C"/>
<path d="M335.613 165.755C335.879 165.247 340.575 156.854 336.279 154.743C336.279 154.743 335.719 150.305 330.784 150.786C325.848 151.268 327.182 152.711 324.034 151.989C320.886 151.268 317.925 152.898 318.165 155.544C318.405 158.191 320.406 159.313 324.034 158.672C327.662 158.03 330.544 158.511 330.544 158.511L333.585 159.394L335.613 165.755Z" fill="#2A94F4"/>
<path d="M336.2 174.843L335.826 164.178L328.463 166.798L329.05 175.351C329.183 177.329 330.277 178.88 332.251 178.746L332.865 178.719C334.839 178.532 336.333 176.821 336.2 174.843Z" fill="#FFE3CA"/>
<path d="M335.186 165.648C335.186 165.648 336.573 174.549 328.996 175.057L328.649 170.834L335.186 165.648Z" fill="#FCD2B1"/>
<path d="M328.943 173.079H329.21C332.998 172.892 335.906 169.685 335.72 165.889L335.346 158.137C335.293 157.148 334.466 156.4 333.479 156.453L324.461 156.881C322.727 156.961 321.367 158.458 321.447 160.196L321.74 166.531C321.954 170.326 325.155 173.24 328.943 173.079Z" fill="#FFE3CA"/>
<path d="M333.985 163.563C334.039 164.846 335.133 165.835 336.413 165.755C337.694 165.702 338.681 164.606 338.601 163.323C338.547 162.04 337.454 161.051 336.173 161.131C334.919 161.184 333.932 162.28 333.985 163.563Z" fill="#FFE3CA"/>
<path d="M332.892 157.362L333.345 165.996C333.399 166.771 333.079 167.573 332.412 168C332.012 168.294 331.691 168.669 330.971 168.562C328.917 168.268 329.877 166.744 325.689 166.958C321.874 167.172 322.167 169.283 322.167 169.283C322.167 169.283 322.914 173.32 328.143 173.507C333.372 173.694 335.987 170.379 335.373 165.969L334.866 156.854L332.892 157.362Z" fill="#55B3FF"/>
<path d="M321.713 158.832C321.713 158.832 324.141 159.207 327.689 158.351C331.21 157.469 334.012 160.329 334.012 160.329C334.012 160.329 334.759 161.639 334.945 161.612C335.132 161.586 336.199 161.158 336.199 161.158L336.146 157.175L333.558 155.144L326.382 154.85L322.14 155.785L321.713 158.832Z" fill="#2A94F4"/>
<defs>
<filter id="filter0_d_0_11335" x="150.963" y="121.44" width="279.613" height="242.217" filterUnits="userSpaceOnUse" color-interpolation-filters="sRGB">
<feFlood flood-opacity="0" result="BackgroundImageFix"/>
<feColorMatrix in="SourceAlpha" type="matrix" values="0 0 0 0 0 0 0 0 0 0 0 0 0 0 0 0 0 0 127 0" result="hardAlpha"/>
<feOffset dx="2" dy="2"/>
<feGaussianBlur stdDeviation="2.5"/>
<feColorMatrix type="matrix" values="0 0 0 0 0.198608 0 0 0 0 0.60852 0 0 0 0 0.944224 0 0 0 1 0"/>
<feBlend mode="normal" in2="BackgroundImageFix" result="effect1_dropShadow_0_11335"/>
<feBlend mode="normal" in="SourceGraphic" in2="effect1_dropShadow_0_11335" result="shape"/>
</filter>
<linearGradient id="paint0_linear_0_11335" x1="386.99" y1="-437.025" x2="-81.2965" y2="-411.324" gradientUnits="userSpaceOnUse">
<stop stop-color="#5CB4FF"/>
<stop offset="1" stop-color="#018EFF"/>
</linearGradient>
<linearGradient id="paint1_linear_0_11335" x1="163.402" y1="260.663" x2="345.796" y2="304.25" gradientUnits="userSpaceOnUse">
<stop stop-color="white" stop-opacity="0.392188"/>
<stop offset="1" stop-color="#DAECFF" stop-opacity="0.555495"/>
</linearGradient>
</defs>
</svg>
