<svg width="247" height="212" viewBox="0 0 247 212" fill="none" xmlns="http://www.w3.org/2000/svg">
<path opacity="0.3" fill-rule="evenodd" clip-rule="evenodd" d="M18.1325 122.983C-0.557133 147.924 -23.9583 220.981 59.8665 263.691C114.794 291.679 156.295 266.921 196.792 257.303C237.289 247.686 296.178 268.83 332.228 198.079C368.278 127.327 320.46 55.7512 257.504 39.798C194.099 23.7247 169.491 49.9724 125.579 72.4485C81.6664 94.9246 59.4633 67.8503 18.1325 122.983ZM178.049 288.424C181.074 300.51 199.127 304.759 210.266 301.647C224.771 297.597 230.223 286.243 228.241 280.248C225.128 270.807 213.354 264.844 199.35 266.675C187.016 268.281 175.877 279.678 178.049 288.424ZM153.193 14.3805C145.785 0.0523512 114.994 -4.60781 93.021 6.43618C71.0476 17.4802 55.6184 37.0442 59.4207 55.2325C61.6224 65.6301 79.8886 81.5106 119.436 64.4847C150.662 51.0708 160.6 28.7087 153.193 14.3805Z" fill="url(#paint0_linear_0_11439)"/>
<defs>
<linearGradient id="paint0_linear_0_11439" x1="13.5669" y1="161.547" x2="236.836" y2="240.316" gradientUnits="userSpaceOnUse">
<stop stop-color="#CCE4FF" stop-opacity="0.392188"/>
<stop offset="1" stop-color="#ADD5FF"/>
</linearGradient>
</defs>
</svg>
