<?xml version="1.0" standalone="no"?><!DOCTYPE svg PUBLIC "-//W3C//DTD SVG 1.1//EN" "http://www.w3.org/Graphics/SVG/1.1/DTD/svg11.dtd"><svg t="1733277698103" class="icon" viewBox="0 0 1024 1024" version="1.1" xmlns="http://www.w3.org/2000/svg" p-id="15704" xmlns:xlink="http://www.w3.org/1999/xlink" width="64" height="64"><path d="M511.705799 64.021106c-247.27171 0-447.724091 200.453405-447.724091 447.724091s200.453405 447.724091 447.724091 447.724091 447.724091-200.453405 447.724091-447.724091S758.976486 64.021106 511.705799 64.021106zM399.354965 265.315668l9.325389-28.701692 9.324366 28.701692 30.18037 0-24.416086 17.739013 9.325389 28.700669-24.414039-17.739013-24.415063 17.739013 9.325389-28.700669-24.414039-17.739013L399.354965 265.315668zM288.788777 331.891969l18.473747-56.856939L325.736271 331.891969l59.782571 0-48.364521 35.140335 18.473747 56.856939-48.365544-35.139312-48.365544 35.139312 18.47477-56.856939L229.006206 331.891969 288.788777 331.891969zM795.726481 322.710866 592.15404 537.600051c24.240077 35.698037 35.026748 77.881788 32.276101 119.369691L465.837122 502.403434c-7.441483-7.252171-19.351744-7.099698-26.604938 0.342808-7.252171 7.441483-7.099698 19.352767 0.341784 26.603915l176.537715 172.056658c-8.626471 27.481911-23.64042 53.416584-45.093011 75.478042l-63.456241 65.25726-2.871397-1.896186-41.808198-35.538401 0-83.617419-76.649727 9.05933L232.980727 578.903759l65.342194-67.195402c64.038502-65.856917 164.162874-75.405387 238.646262-27.785833L739.84373 269.77012c14.619976-15.431457 38.97978-16.089443 54.41226-1.469468C809.687448 282.919605 810.345434 307.279409 795.726481 322.710866z" fill="#e462a2" p-id="15705"></path></svg>