<svg class="icon" viewBox="0 0 1024 1024" version="1.1" xmlns="http://www.w3.org/2000/svg" width="40" height="40">
    <path
        d="M512 1024a512 512 0 1 1 512-512 512 512 0 0 1-512 512z m181.49181-693.49181a48.761905 48.761905 0 0 0-69.09562 0L512 442.904381l-112.39619-112.396191a48.859429 48.859429 0 1 0-69.09562 69.09562l112.396191 112.39619-111.640381 111.640381a48.859429 48.859429 0 0 0 69.095619 69.095619L512 581.095619l111.640381 111.640381a48.859429 48.859429 0 0 0 69.095619-69.095619L581.095619 512l112.396191-112.39619a48.761905 48.761905 0 0 0 0-69.09562z"
        fill="#959595" />
</svg>