<?xml version="1.0" standalone="no"?><!DOCTYPE svg PUBLIC "-//W3C//DTD SVG 1.1//EN" "http://www.w3.org/Graphics/SVG/1.1/DTD/svg11.dtd">
<svg class="icon" width="64" height="64" viewBox="0 0 1024 1024" version="1.1" xmlns="http://www.w3.org/2000/svg">
    <path
        d="M902.622 517.978c-11.713-28.019-28.465-53.198-49.886-74.716-21.416-21.606-46.404-38.636-74.23-50.542-27.732-11.806-57.022-18.129-87.226-18.584a257.567 257.567 0 0 0-11.535-34.425c-12.265-29.396-29.931-55.764-52.354-78.471-22.426-22.706-48.696-40.559-77.894-53.014-29.93-12.906-62.056-19.5-95.28-19.5-33.136 0-65.354 6.594-95.652 19.5-29.197 12.456-55.374 30.309-77.895 53.014-22.421 22.707-39.995 49.075-52.353 78.471-12.724 30.396-19.221 62.716-19.221 95.863 0 6.683 0.276 13.366 0.82 20.05-20.776 11.357-39.721 26.37-55.829 44.499-33.685 38.001-52.174 86.804-52.174 137.525 0 27.745 5.4 54.753 16.2 80.299 10.342 24.541 25.077 46.697 43.844 65.654 18.857 19.04 40.728 34.058 65.171 44.498 25.445 10.894 52.448 16.479 80.18 16.479H689.08c7.049 0 14.374-0.367 21.784-1.19 57.39-5.766 110.481-32.685 149.381-75.81 39.173-43.402 60.684-99.529 60.684-158.22 0-31.682-6.133-62.357-18.307-91.38zM703.816 774.35c-4.756 0.55-9.609 0.822-14.552 0.822H307.49c-74.78 0-135.925-61.803-135.925-137.342 0-70.044 52.54-128.185 119.817-136.331-8.058-20.328-12.635-42.486-12.635-65.742 0.094-98.062 78.627-177.445 175.468-177.445 80.402 0 148.143 54.621 168.907 129.164a194.18 194.18 0 0 0-56.693 33.907c-14.552 12.54-16.201 34.52-3.66 49.075 6.865 7.967 16.567 12.086 26.36 12.086a34.98 34.98 0 0 0 22.7-8.33c22.515-19.412 51.257-30.124 80.728-30.124 1.109 0 2.203-0.057 3.285-0.158 86.7 4.33 155.704 76.747 155.704 165.519 0.001 85.971-64.803 156.658-147.73 164.899z"
        fill="#ffffff" />
</svg>