<?xml version="1.0" standalone="no"?><!DOCTYPE svg PUBLIC "-//W3C//DTD SVG 1.1//EN" "http://www.w3.org/Graphics/SVG/1.1/DTD/svg11.dtd"><svg class="icon" width="256px" height="256.00px" viewBox="0 0 1024 1024" version="1.1" xmlns="http://www.w3.org/2000/svg"><path d="M739.555556 113.777778a113.777778 113.777778 0 0 1 113.777777 113.777778v568.888888a113.777778 113.777778 0 0 1-113.777777 113.777778H284.444444a113.777778 113.777778 0 0 1-113.777777-113.777778V369.777778c8.448-69.859556 32.199111-126.748444 71.253333-170.666667C280.945778 155.192889 333.056 126.748444 398.222222 113.777778h341.333334zM455.111111 199.566222c-50.289778-3.754667-96.284444 15.217778-137.955555 56.860445C275.484444 298.069333 255.089778 345.457778 256 398.506667V739.555556a85.333333 85.333333 0 0 0 85.333333 85.333333H682.666667a85.333333 85.333333 0 0 0 85.333333-85.333333V284.899556a85.333333 85.333333 0 0 0-85.333333-85.333334z" fill="#00CCA3" /><path d="M341.333333 369.777778m42.666667 0l142.222222 0q42.666667 0 42.666667 42.666666l0 0q0 42.666667-42.666667 42.666667l-142.222222 0q-42.666667 0-42.666667-42.666667l0 0q0-42.666667 42.666667-42.666666Z" fill="#3EE1C0" /><path d="M341.333333 568.888889m42.666667 0l85.333333 0q42.666667 0 42.666667 42.666667l0 0q0 42.666667-42.666667 42.666666l-85.333333 0q-42.666667 0-42.666667-42.666666l0 0q0-42.666667 42.666667-42.666667Z" fill="#3EE1C0" /><path d="M928.910222 197.091556l20.110222 20.110222a56.888889 56.888889 0 0 1 0 80.440889l-269.909333 269.937777a56.888889 56.888889 0 0 1-55.438222 14.563556l-46.762667-12.970667-12.942222-46.734222a56.888889 56.888889 0 0 1 14.592-55.466667l269.880889-269.880888a56.888889 56.888889 0 0 1 80.469333 0z" fill="#03BF99" /></svg>