<?xml version="1.0" standalone="no"?><!DOCTYPE svg PUBLIC "-//W3C//DTD SVG 1.1//EN" "http://www.w3.org/Graphics/SVG/1.1/DTD/svg11.dtd">
<svg class="icon" width="64" height="64" viewBox="0 0 1024 1024" version="1.1" xmlns="http://www.w3.org/2000/svg">
    <path
        d="M892.176 528.256a82.368 82.368 0 0 0 12.272-42.928 83.2 83.2 0 0 0-145.296-55.472H736.16a145.6 145.6 0 0 0-260.496-108.32c-21.12-3.184-42.4-5.12-63.728-5.824a204.8 204.8 0 0 1 375.664 35.728 135.584 135.584 0 0 1 35.2-4.8 138.736 138.736 0 0 1 116.8 211.088 159.664 159.664 0 0 0-47.424-29.472zM753.904 832c-0.64 0-1.264-0.096-1.904-0.112V832H208v-0.72A160 160 0 0 1 222.096 512a156.096 156.096 0 0 1 40.544 5.504 236.176 236.176 0 0 1 450.72 0A156.096 156.096 0 0 1 753.904 512c88.368 0 160 71.632 160 160s-71.632 160-160 160zM752 576a95.632 95.632 0 0 0-71.408 32h-26.496a168 168 0 1 0-332.192 0h-26.496A96 96 0 1 0 208 766.56V768h544a96 96 0 1 0 0-192z"
        fill="#ffffff" />
</svg>