<?xml version="1.0" standalone="no"?><!DOCTYPE svg PUBLIC "-//W3C//DTD SVG 1.1//EN" "http://www.w3.org/Graphics/SVG/1.1/DTD/svg11.dtd">
<svg class="icon" width="64" height="64" viewBox="0 0 1024 1024" version="1.1" xmlns="http://www.w3.org/2000/svg">
    <path
        d="M769.904 624c-0.656 0-1.264-0.096-1.904-0.112V624h-32v-64h32a96 96 0 1 0-71.408-160h-26.496a168 168 0 1 0-332.192 0h-26.496A96 96 0 1 0 224 558.56V560h288a48 48 0 0 0 0-96 32 32 0 1 1 0-64 111.696 111.696 0 0 1 32 218.8V624H224v-0.72A160 160 0 0 1 238.096 304a156.24 156.24 0 0 1 40.544 5.504 236.176 236.176 0 0 1 450.72 0A156.24 156.24 0 0 1 769.904 304c88.368 0 160 71.632 160 160s-71.632 160-160 160zM160 688h624a112 112 0 0 1 0 224 32 32 0 1 1 0-64 48 48 0 0 0 0-96H160a32 32 0 0 1 0-64z"
        fill="#ffffff" />
</svg>