<?xml version="1.0" standalone="no"?><!DOCTYPE svg PUBLIC "-//W3C//DTD SVG 1.1//EN" "http://www.w3.org/Graphics/SVG/1.1/DTD/svg11.dtd">
<svg class="icon" viewBox="0 0 1024 1024" version="1.1" xmlns="http://www.w3.org/2000/svg" width="64" height="64"
    xmlns:xlink="http://www.w3.org/1999/xlink">
    <path
        d="M847.936 64.256h-672a70.016 70.016 0 0 0-70.016 70.016v755.584a70.016 70.016 0 0 0 70.016 70.016h657.664a84.224 84.224 0 0 0 84.16-84.16V134.016a70.016 70.016 0 0 0-69.824-69.76zM175.936 890.24V134.016a0.448 0.448 0 0 1 0.448-0.448h301.12v756.928H176.384a0.448 0.448 0 0 1-0.704-0.64z m672.768 0a0.448 0.448 0 0 1-0.512 0.448H547.072V133.568h301.12a0.448 0.448 0 0 1 0.512 0.448z"
        fill="#8a8a8a" />
    <path
        d="M435.648 467.456L348.032 379.84a17.6 17.6 0 0 0-2.752-3.264 26.624 26.624 0 0 0-37.376 0 21.248 21.248 0 0 0-2.752 3.264l-87.68 87.616a26.048 26.048 0 0 0 36.864 36.864l46.144-46.144v172.8a26.112 26.112 0 1 0 52.16 0v-172.8l46.144 46.144a26.048 26.048 0 0 0 36.864-36.864z"
        fill="#8a8a8a" />
    <path
        d="M775.68 521.216l-46.08 46.144v-172.8a26.112 26.112 0 1 0-52.16 0v172.8l-46.144-46.144a26.048 26.048 0 0 0-36.864 36.864l87.68 87.616a25.6 25.6 0 0 0 2.752 3.264 26.624 26.624 0 0 0 37.44 0 21.12 21.12 0 0 0 2.752-3.264l87.616-87.616a26.048 26.048 0 0 0-36.864-36.864z"
        fill="#8a8a8a" />
</svg>