<svg width="261" height="261" viewBox="0 0 261 261" fill="none" xmlns="http://www.w3.org/2000/svg">
<path d="M51.3259 151.4L52.5059 163.635L45.1143 162.821L51.3259 151.4Z" fill="#E4EFFF"/>
<path d="M50.9766 151.4L58.623 161.057L52.1356 163.635L50.9766 151.4Z" fill="#F3F8FF"/>
<path d="M25.5746 154.459L27.0176 170.007L18.0967 168.97L25.5746 154.459Z" fill="#E4EFFF"/>
<path d="M25.7432 154.459L35.1738 166.746L27.188 170.007L25.7432 154.459Z" fill="#F3F8FF"/>
<path d="M37.8452 143.754L40.2715 169.497L23.959 167.893L37.8452 143.754Z" fill="#E4EFFF"/>
<path d="M37.4678 143.754L54.5449 163.985L39.896 169.497L37.4678 143.754Z" fill="#F3F8FF"/>
<path d="M42.6232 87.1767C41.6715 82.076 37.2154 78.4124 32.0766 78.5056C29.3272 78.4928 26.6736 79.5245 24.6425 81.396C23.5044 80.8779 22.2704 80.6095 21.022 80.6084C17.0666 80.5454 13.6037 83.2782 12.7078 87.1695C9.6679 87.8482 7.47583 90.5298 7.3916 93.6728C7.50849 97.4975 10.6585 100.511 14.4465 100.422H40.8631C44.6526 100.515 47.8049 97.4992 47.918 93.6728C47.8354 90.538 45.6535 87.861 42.6232 87.1767Z" fill="url(#paint0_linear_2493_60693)"/>
<path d="M195.932 51.7665C194.559 49.6151 192.237 48.2788 189.711 48.1866C188.24 45.9106 185.721 44.5589 183.038 44.6067C180.887 44.585 178.817 45.4426 177.297 46.986C176.601 46.7608 175.875 46.6455 175.145 46.644C171.765 46.644 168.974 49.0161 168.687 52.0139C166.11 52.6366 164.255 54.9188 164.145 57.6021C164.145 60.8328 167.065 63.4668 170.603 63.4668H195.408C198.996 63.4668 201.866 60.8328 201.866 57.6021C201.924 54.5315 199.269 52.0067 195.932 51.7665Z" fill="url(#paint1_linear_2493_60693)"/>
<path d="M242.043 43.7743C239.621 38.7848 234.565 35.6098 229.015 35.5926C225.923 35.5993 222.916 36.6006 220.439 38.4483C217.491 32.7048 211.089 29.609 204.751 30.862C198.413 32.1151 193.675 37.4135 193.139 43.8457C186.321 45.9949 182.09 52.7898 183.175 59.8493C184.259 66.9089 190.335 72.1238 197.484 72.1318H237.819C245.01 72.1454 251.122 66.8875 252.176 59.7817C253.23 52.6758 248.907 45.873 242.021 43.8029L242.043 43.7743Z" fill="url(#paint2_linear_2493_60693)"/>
<path d="M130.5 230.414C202.573 230.414 261 211.927 261 189.123C261 166.319 202.573 147.832 130.5 147.832C58.4268 147.832 0 166.319 0 189.123C0 211.927 58.4268 230.414 130.5 230.414Z" fill="url(#paint3_linear_2493_60693)"/>
<path opacity="0.385356" d="M176.207 170.933L225.356 205.739L138.923 233.562L100.048 157.621L157.328 159.685L176.207 170.933Z" fill="url(#paint4_linear_2493_60693)"/>
<path d="M96.3271 96.7203H74.0199V86.9283C74.0199 86.9283 73.4572 77.5117 87.0388 77.5117C100.152 77.5117 96.3271 96.7203 96.3271 96.7203Z" fill="url(#paint5_linear_2493_60693)"/>
<path d="M86.5186 77.5117C86.5186 77.5117 95.0862 78.559 95.0862 89.6192C95.0862 100.679 95.0862 153.695 95.0862 153.695C95.0862 153.695 94.9015 161.965 103.813 161.965C112.721 161.965 129.493 161.965 129.493 161.965L142.49 123.599V92.3071C142.49 92.3071 143.473 77.5147 130.146 77.5147C118.197 77.5117 86.5186 77.5117 86.5186 77.5117Z" fill="url(#paint6_linear_2493_60693)"/>
<path d="M133.051 87.2715H104.059C103.323 87.2715 102.725 87.8689 102.725 88.6058V91.63C102.725 92.367 103.323 92.9644 104.059 92.9644H133.051C133.788 92.9644 134.386 92.367 134.386 91.63V88.6058C134.386 87.8689 133.788 87.2715 133.051 87.2715Z" fill="url(#paint7_linear_2493_60693)"/>
<path d="M124.17 98.5371H104.059C103.323 98.5371 102.725 99.1345 102.725 99.8715V102.896C102.725 103.633 103.323 104.23 104.059 104.23H124.17C124.907 104.23 125.505 103.633 125.505 102.896V99.8715C125.505 99.1345 124.907 98.5371 124.17 98.5371Z" fill="url(#paint8_linear_2493_60693)"/>
<path d="M124.17 109.805H104.059C103.323 109.805 102.725 110.402 102.725 111.139V114.163C102.725 114.9 103.323 115.498 104.059 115.498H124.17C124.907 115.498 125.505 114.9 125.505 114.163V111.139C125.505 110.402 124.907 109.805 124.17 109.805Z" fill="url(#paint9_linear_2493_60693)"/>
<path d="M107.174 161.964H146.855L142.461 129.976C142.461 129.976 136.935 122.203 126.067 122.203C113.826 122.203 114.422 133.787 114.422 134.386C114.422 134.986 114.422 154.342 114.422 154.342C114.422 154.342 114.339 161.964 107.174 161.964Z" fill="url(#paint10_linear_2493_60693)"/>
<path d="M176.207 170.934H139.723V134.959C139.723 134.959 140.615 122.204 126.199 122.204C142.554 122.204 160.273 122.204 160.273 122.204C160.273 122.204 176.207 121.804 176.207 138.147C176.207 154.489 176.207 170.934 176.207 170.934Z" fill="url(#paint11_linear_2493_60693)"/>
<path d="M168.249 133.486H148.088C147.351 133.486 146.754 134.084 146.754 134.821V137.845C146.754 138.582 147.351 139.179 148.088 139.179H168.249C168.986 139.179 169.584 138.582 169.584 137.845V134.821C169.584 134.084 168.986 133.486 168.249 133.486Z" fill="url(#paint12_linear_2493_60693)"/>
<path d="M163.357 144.754H148.088C147.351 144.754 146.754 145.351 146.754 146.088V149.112C146.754 149.849 147.351 150.447 148.088 150.447H163.357C164.094 150.447 164.692 149.849 164.692 149.112V146.088C164.692 145.351 164.094 144.754 163.357 144.754Z" fill="url(#paint13_linear_2493_60693)"/>
<path d="M165.532 156.02H148.088C147.351 156.02 146.754 156.617 146.754 157.354V160.378C146.754 161.115 147.351 161.712 148.088 161.712H165.532C166.268 161.712 166.866 161.115 166.866 160.378V157.354C166.866 156.617 166.268 156.02 165.532 156.02Z" fill="url(#paint14_linear_2493_60693)"/>
<path d="M156.424 128.394C156.424 128.394 156.173 128.731 156.902 129.95C155.794 130.33 154.333 129.878 154.333 129.878L154.412 127.848L156.424 128.394Z" fill="#FECCA9"/>
<path d="M153.673 131.097L160.117 131.424C160.117 131.424 160.542 129.524 158.003 129.472C157.489 129.462 157.093 128.867 156.671 128.863C155.659 129.681 153.987 129.455 153.987 129.455L153.673 131.097Z" fill="#003A8C"/>
<path d="M153.522 131.508L156.345 131.904L156.477 131.394L160.107 131.812L160.203 131.381L153.69 130.566L153.522 131.508Z" fill="#001529"/>
<path d="M159.655 129.317C159.655 129.317 159.223 129.814 160.249 130.812C159.279 131.456 158.03 131.283 158.03 131.283L157.571 129.301L159.655 129.317Z" fill="#FECCA9"/>
<path d="M157.417 132.649L163.863 132.499C163.863 132.499 164.131 130.57 161.595 130.71C161.084 130.74 160.638 130.174 160.216 130.2C159.276 131.093 157.591 130.988 157.591 130.988L157.417 132.649Z" fill="#003A8C"/>
<path d="M157.301 133.073L160.147 133.256L160.236 132.739L163.886 132.886L163.949 132.451L157.393 132.121L157.301 133.073Z" fill="#001529"/>
<path d="M150.617 117.558C150.617 117.558 158.798 115.367 159.577 117.244C160.355 119.121 158.755 122.153 157.961 124.426C157.166 126.698 156.566 128.733 156.566 128.733L154.01 128.497L154.957 120.56C154.957 120.56 154.406 119.151 152.487 118.994C150.571 118.84 150.617 117.558 150.617 117.558Z" fill="url(#paint15_linear_2493_60693)"/>
<path d="M147.665 116.43C147.665 116.43 155.992 115.354 156.965 116.695C157.937 118.036 159.863 129.861 159.863 129.861L157.723 130.708C157.723 130.708 154.442 121.881 153.667 121.476C153.004 121.129 151.062 121.502 149.218 122.045C147.375 122.588 144.232 123.232 142.808 119.785C143.454 116.077 147.665 116.43 147.665 116.43Z" fill="url(#paint16_linear_2493_60693)"/>
<path d="M148.852 101.446C148.852 101.446 149.944 102.869 149.179 105.122C148.984 105.553 148.608 106.302 147.573 105.737C147.484 105.717 147.424 105.844 147.401 105.965C147.378 106.086 147.098 108.163 147.098 108.163L144.117 108.179C144.117 108.179 145.498 103.035 145.472 102.025C145.462 101.505 146.019 100.596 147.124 100.547C148.229 100.498 148.852 101.446 148.852 101.446Z" fill="#FECCA9"/>
<path d="M148.048 99.5399C148.048 99.5399 148.351 98.9742 149.185 99.3862C150.02 99.7983 149.621 100.528 149.591 100.711C149.561 100.894 149.677 101.034 149.924 100.936C150.171 100.835 150.61 100.766 150.913 101.322C151.217 101.878 150.574 103.353 149.598 103.206C148.625 103.062 148.133 102.565 147.784 102.212C147.431 101.858 146.755 101.44 146.656 101.855C146.557 102.271 146.584 103.144 146.389 103.016C146.208 102.895 146.313 102.002 145.772 101.999C145.231 101.996 145.271 102.771 145.627 103.186C145.779 103.363 145.769 103.33 145.716 103.51C145.663 103.69 145.677 103.814 145.482 104.027C145.284 104.242 145.205 104.357 145.043 104.046C144.882 103.732 144.579 103.14 144.74 101.881C144.806 101.528 144.694 101.505 144.509 101.306C144.325 101.106 144.057 100.792 144.328 100.341C144.598 99.8866 144.859 99.9454 145.195 99.9585C145.535 99.9749 145.518 99.8506 145.522 99.6511C145.525 99.4516 145.772 98.6831 146.442 98.6995C147.111 98.7126 147.398 99.0886 147.57 99.4058C147.741 99.723 147.939 99.6446 148.048 99.5399Z" fill="#003A8C"/>
<path d="M150.738 111.34C150.738 111.34 150.851 112.573 151.154 112.864C151.457 113.155 153.624 114.95 154.781 115.493C154.551 116.16 154.402 116.245 154.402 116.245C154.402 116.245 151.223 115.369 150.191 114.345C149.832 113.949 149.175 113.083 148.991 111.798C149.812 110.977 150.738 111.34 150.738 111.34Z" fill="#FECCA9"/>
<path d="M151.151 111.892L148.546 113.364C148.546 113.364 146.495 108.746 148.087 107.304C148.592 106.882 149.967 107.491 150.472 109.028C150.979 110.561 151.151 111.892 151.151 111.892Z" fill="url(#paint17_linear_2493_60693)"/>
<path d="M141.901 107.725C141.901 107.725 143.012 105.609 144.737 105.747C144.974 106.937 146.34 106.989 147.299 106.666C148.002 106.76 148.397 106.806 148.879 107.509C149.36 108.212 149.311 108.379 149.641 109.861C149.878 111.371 149.281 112.653 149.538 114.033C149.792 115.417 151.105 115.629 150.422 116.205C149.739 116.78 145.456 117.101 143.487 119.982C142.88 120.871 142.402 118.86 142.392 117.343C142.382 115.822 143.18 111.901 141.901 107.725Z" fill="url(#paint18_linear_2493_60693)"/>
<path d="M157.726 116.011L154.653 115.93L148.662 116.272L153.495 117.015L157.726 116.011Z" fill="url(#paint19_linear_2493_60693)"/>
<path d="M149.64 116.244L153.495 116.744V117.016L149.451 116.473L149.64 116.244Z" fill="url(#paint20_linear_2493_60693)"/>
<path d="M144.206 111.377C144.206 111.377 144.928 113.676 145.139 113.748C145.35 113.82 148.806 115.259 149.215 115.278C149.624 115.298 151.435 114.444 152.127 116.24C152.17 116.426 152.213 116.554 151.705 116.511C151.2 116.469 150.429 116.279 149.895 116.446C149.36 116.613 149.136 116.321 148.651 116.321C148.167 116.321 144.295 115.988 143.791 115.507C143.286 115.026 142.676 114.17 142.359 112.335C143.645 111.524 144.206 111.377 144.206 111.377Z" fill="#FECCA9"/>
<path d="M144.964 111.797L142.359 113.268C142.359 113.268 140.308 108.651 141.901 107.209C142.405 106.787 143.78 107.395 144.285 108.932C144.79 110.466 144.964 111.797 144.964 111.797Z" fill="url(#paint21_linear_2493_60693)"/>
<path d="M160.275 111.266L154.953 111.37C154.801 111.374 154.669 111.475 154.63 111.622L153.314 116.544C153.255 116.769 153.439 116.989 153.673 116.969L158.805 116.537C158.943 116.524 159.058 116.433 159.101 116.305L160.608 111.71C160.681 111.488 160.509 111.262 160.275 111.266Z" fill="url(#paint22_linear_2493_60693)"/>
<path d="M230.924 154.459L229.682 170.771L220.474 168.101L230.924 154.459Z" fill="#E4EFFF"/>
<path d="M230.63 154.459L238.315 168.832L229.395 170.771L230.63 154.459Z" fill="#F3F8FF"/>
<defs>
<linearGradient id="paint0_linear_2493_60693" x1="2033.71" y1="2273.18" x2="2033.71" y2="77.233" gradientUnits="userSpaceOnUse">
<stop stop-color="white" stop-opacity="0.1"/>
<stop offset="1" stop-color="#D9E9FF"/>
</linearGradient>
<linearGradient id="paint1_linear_2493_60693" x1="2053.46" y1="1930.74" x2="2053.46" y2="44.728" gradientUnits="userSpaceOnUse">
<stop stop-color="white" stop-opacity="0.1"/>
<stop offset="0.14" stop-color="#F8FBFF" stop-opacity="0.27"/>
<stop offset="0.37" stop-color="#EDF5FF" stop-opacity="0.52"/>
<stop offset="0.58" stop-color="#E4F0FF" stop-opacity="0.73"/>
<stop offset="0.76" stop-color="#DEECFF" stop-opacity="0.88"/>
<stop offset="0.91" stop-color="#DAEAFF" stop-opacity="0.97"/>
<stop offset="1" stop-color="#D9E9FF"/>
</linearGradient>
<linearGradient id="paint2_linear_2493_60693" x1="3649.73" y1="4182.32" x2="3649.73" y2="27.2155" gradientUnits="userSpaceOnUse">
<stop stop-color="white" stop-opacity="0.1"/>
<stop offset="0.09" stop-color="#FEFEFF" stop-opacity="0.13"/>
<stop offset="0.23" stop-color="#FBFCFF" stop-opacity="0.21"/>
<stop offset="0.4" stop-color="#F5F9FF" stop-opacity="0.33"/>
<stop offset="0.59" stop-color="#EEF5FF" stop-opacity="0.51"/>
<stop offset="0.79" stop-color="#E4EFFF" stop-opacity="0.74"/>
<stop offset="1" stop-color="#D9E9FF"/>
</linearGradient>
<linearGradient id="paint3_linear_2493_60693" x1="13050" y1="8406.04" x2="13050" y2="147.832" gradientUnits="userSpaceOnUse">
<stop stop-color="white" stop-opacity="0.1"/>
<stop offset="0.13" stop-color="#FBFDFF" stop-opacity="0.19"/>
<stop offset="0.41" stop-color="#F1F7FF" stop-opacity="0.43"/>
<stop offset="0.81" stop-color="#E1EEFF" stop-opacity="0.82"/>
<stop offset="1" stop-color="#D9E9FF"/>
</linearGradient>
<linearGradient id="paint4_linear_2493_60693" x1="4734.39" y1="4266.22" x2="4180.63" y2="2442.4" gradientUnits="userSpaceOnUse">
<stop stop-color="white" stop-opacity="0"/>
<stop offset="1" stop-color="#C1DDFD"/>
</linearGradient>
<linearGradient id="paint5_linear_2493_60693" x1="74.0166" y1="1918.69" x2="3945.96" y2="1918.69" gradientUnits="userSpaceOnUse">
<stop stop-color="#F6FBFF"/>
<stop offset="1" stop-color="#ACD2FA"/>
</linearGradient>
<linearGradient id="paint6_linear_2493_60693" x1="2018.05" y1="4300.15" x2="4124.24" y2="4184.49" gradientUnits="userSpaceOnUse">
<stop stop-color="#EDF5FF"/>
<stop offset="1" stop-color="#3396FB"/>
</linearGradient>
<linearGradient id="paint7_linear_2493_60693" x1="2152.75" y1="398.065" x2="1896.57" y2="-45.603" gradientUnits="userSpaceOnUse">
<stop stop-color="#D9E9FF"/>
<stop offset="0.31" stop-color="#DFECFF"/>
<stop offset="0.73" stop-color="#F0F6FF"/>
<stop offset="1" stop-color="white"/>
</linearGradient>
<linearGradient id="paint8_linear_2493_60693" x1="1597.24" y1="421.692" x2="1386.03" y2="55.7587" gradientUnits="userSpaceOnUse">
<stop stop-color="#D9E9FF"/>
<stop offset="0.31" stop-color="#DFECFF"/>
<stop offset="0.73" stop-color="#F0F6FF"/>
<stop offset="1" stop-color="white"/>
</linearGradient>
<linearGradient id="paint9_linear_2493_60693" x1="1597.24" y1="432.96" x2="1386.03" y2="67.0262" gradientUnits="userSpaceOnUse">
<stop stop-color="#D9E9FF"/>
<stop offset="0.31" stop-color="#DFECFF"/>
<stop offset="0.73" stop-color="#F0F6FF"/>
<stop offset="1" stop-color="white"/>
</linearGradient>
<linearGradient id="paint10_linear_2493_60693" x1="384.503" y1="2194.7" x2="4881.13" y2="2110.6" gradientUnits="userSpaceOnUse">
<stop stop-color="#F5FBFF"/>
<stop offset="1" stop-color="#89BEF8"/>
</linearGradient>
<linearGradient id="paint11_linear_2493_60693" x1="1340.46" y1="2558.73" x2="5127.02" y2="2558.73" gradientUnits="userSpaceOnUse">
<stop stop-color="#EDF7FF"/>
<stop offset="1" stop-color="#3396FB"/>
</linearGradient>
<linearGradient id="paint12_linear_2493_60693" x1="1624.98" y1="468.421" x2="1489.79" y2="143.723" gradientUnits="userSpaceOnUse">
<stop stop-color="#D9E9FF"/>
<stop offset="0.31" stop-color="#DFECFF"/>
<stop offset="0.73" stop-color="#F0F6FF"/>
<stop offset="1" stop-color="white"/>
</linearGradient>
<linearGradient id="paint13_linear_2493_60693" x1="1323.6" y1="491.506" x2="1180.86" y2="177.433" gradientUnits="userSpaceOnUse">
<stop stop-color="#D9E9FF"/>
<stop offset="0.31" stop-color="#DFECFF"/>
<stop offset="0.73" stop-color="#F0F6FF"/>
<stop offset="1" stop-color="white"/>
</linearGradient>
<linearGradient id="paint14_linear_2493_60693" x1="1466.25" y1="490.069" x2="1296.73" y2="157.412" gradientUnits="userSpaceOnUse">
<stop stop-color="#D9E9FF"/>
<stop offset="0.31" stop-color="#DFECFF"/>
<stop offset="0.73" stop-color="#F0F6FF"/>
<stop offset="1" stop-color="white"/>
</linearGradient>
<linearGradient id="paint15_linear_2493_60693" x1="1067.57" y1="728.994" x2="434.585" y2="728.994" gradientUnits="userSpaceOnUse">
<stop stop-color="#3E65A3"/>
<stop offset="1" stop-color="#143E81"/>
</linearGradient>
<linearGradient id="paint16_linear_2493_60693" x1="1605.07" y1="1435.32" x2="1082.37" y2="537.516" gradientUnits="userSpaceOnUse">
<stop stop-color="#3E65A3"/>
<stop offset="1" stop-color="#143E81"/>
</linearGradient>
<linearGradient id="paint17_linear_2493_60693" x1="331.038" y1="726.284" x2="331.038" y2="429.452" gradientUnits="userSpaceOnUse">
<stop stop-color="#40A9FF"/>
<stop offset="1" stop-color="#53A4FC"/>
</linearGradient>
<linearGradient id="paint18_linear_2493_60693" x1="577.731" y1="1551.32" x2="577.731" y2="858.026" gradientUnits="userSpaceOnUse">
<stop stop-color="#40A9FF"/>
<stop offset="1" stop-color="#53A4FC"/>
</linearGradient>
<linearGradient id="paint19_linear_2493_60693" x1="148.546" y1="170.169" x2="861.849" y2="170.169" gradientUnits="userSpaceOnUse">
<stop stop-color="#003A8C"/>
<stop offset="1" stop-color="#272F7C"/>
</linearGradient>
<linearGradient id="paint20_linear_2493_60693" x1="553.841" y1="154.806" x2="235.648" y2="154.806" gradientUnits="userSpaceOnUse">
<stop stop-color="#003A8C"/>
<stop offset="1" stop-color="#272F7C"/>
</linearGradient>
<linearGradient id="paint21_linear_2493_60693" x1="324.783" y1="726.113" x2="324.783" y2="429.279" gradientUnits="userSpaceOnUse">
<stop stop-color="#40A9FF"/>
<stop offset="1" stop-color="#53A4FC"/>
</linearGradient>
<linearGradient id="paint22_linear_2493_60693" x1="153.233" y1="396.764" x2="729.44" y2="396.764" gradientUnits="userSpaceOnUse">
<stop stop-color="#001A3F"/>
<stop offset="1" stop-color="#003A8C"/>
</linearGradient>
</defs>
</svg>
