<?xml version="1.0" standalone="no"?><!DOCTYPE svg PUBLIC "-//W3C//DTD SVG 1.1//EN" "http://www.w3.org/Graphics/SVG/1.1/DTD/svg11.dtd"><svg class="icon" width="256px" height="256.00px" viewBox="0 0 1024 1024" version="1.1" xmlns="http://www.w3.org/2000/svg"><path d="M768 42.656a170.656 170.656 0 0 1 170.656 170.688v597.312A170.656 170.656 0 0 1 768 981.344H256a170.656 170.656 0 0 1-170.656-170.688V213.344A170.656 170.656 0 0 1 256 42.656zM469.344 128L256 128a85.344 85.344 0 0 0-85.344 85.344v597.312A85.344 85.344 0 0 0 256 896h213.344V128zM768 128h-213.344v768H768a85.344 85.344 0 0 0 85.152-79.936l0.192-5.408V213.344A85.344 85.344 0 0 0 768 128z m-382.944 202.656c11.776 0 21.312 9.568 21.312 21.344v317.12a21.344 21.344 0 0 1-32.768 18.016L249.664 608.32a21.344 21.344 0 0 1-6.528-29.44l17.184-27.008a21.344 21.344 0 0 1 29.44-6.56l41.952 26.72V352c0-11.776 9.568-21.344 21.344-21.344h32z m254.944 0c4.064 0 8 1.152 11.456 3.36l123.936 78.848c9.92 6.336 12.864 19.52 6.528 29.44l-17.184 27.008a21.344 21.344 0 0 1-29.44 6.56l-41.952-26.72v220a21.344 21.344 0 0 1-21.344 21.344h-32a21.344 21.344 0 0 1-21.344-21.344V352c0-11.776 9.568-21.344 21.344-21.344z" fill="#3C67FD" /></svg>