<?xml version="1.0" standalone="no"?><!DOCTYPE svg PUBLIC "-//W3C//DTD SVG 1.1//EN" "http://www.w3.org/Graphics/SVG/1.1/DTD/svg11.dtd">
<svg class="icon" viewBox="0 0 1024 1024" version="1.1" xmlns="http://www.w3.org/2000/svg"
    xmlns:xlink="http://www.w3.org/1999/xlink" width="64" height="64">
    <path
        d="M912.73728 681.41056l-1.81248-2.18624c-0.77312-1.30048-1.80736-1.93536-2.58048-3.63008l0 0-1.81248-1.5616-0.51712-1.27488-0.52736 0-3.87072-3.23584-2.0736-1.03424-0.768 0c-4.14208-2.31936-9.8304-4.78208-15.25248-4.78208l-102.87104 0c-18.09408 0-33.34144 15.5136-33.34144 33.98656 0 18.09408 15.24736 33.08544 33.34144 33.08544l21.71904 0-158.18752 158.4384c-12.65152 13.43488-12.65152 34.88768 0 47.54944 13.45536 12.65664 34.64192 12.65664 47.04256 0l158.4384-158.57664 0 22.10304c0 18.09408 15.75936 33.60768 33.85344 33.60768 18.87232 0 33.08544-15.5136 33.08544-33.60768l0-101.94944 0-0.65536C916.61312 691.75296 915.584 686.57664 912.73728 681.41056L912.73728 681.41056 912.73728 681.41056zM978.64704 200.68864 978.64704 200.68864 978.64704 200.68864c-26.368-26.74176-62.55104-42.7776-102.6048-42.7776l-90.97728 0c-1.81248 0-3.8912 0.26624-5.43744 0.52224-15.24736 0.65024-30.76096 4.00896-45.7472 9.17504-16.03584 6.33856-31.27296 14.99136-44.46208 26.74688l-0.52224 0.26624-0.77312 1.16224L465.60256 417.14688 354.22208 352.91648l0-40.704c0-22.09792-17.57184-40.18176-40.06912-40.18176-22.48192 0-40.05376 18.07872-40.05376 40.18176l0 295.936-89.4208 88.51456-35.66592 0c-40.06912 0-76.76416 16.41984-102.6048 42.77248L45.88032 739.43552c-25.84064 26.36288-42.9056 62.91968-42.9056 102.72768 0 40.05888 17.06496 76.76928 42.9056 102.61504l0.52224 0c25.84064 26.61376 62.53568 43.1616 102.6048 43.1616l90.70592 0c20.67456 0 40.06912-4.63872 57.38496-12.41088 18.34496-7.23968 34.63168-19.1232 47.81056-33.3312l495.19104-493.27616 35.93728 0c40.05376 0 76.2368-16.28672 102.6048-42.63424 26.61888-26.49088 42.37824-62.93504 42.37824-102.99904C1021.02528 263.49056 1005.26592 227.05664 978.64704 200.68864L978.64704 200.68864zM354.22208 446.09536 354.22208 446.09536l52.20352 29.8496-52.20352 51.94752L354.22208 446.09536 354.22208 446.09536zM944.26112 372.03968 944.26112 372.03968c-17.04448 17.5872-41.60512 28.42624-68.21888 28.42624l-45.76256 0c-7.74656 0-13.69088 3.50208-18.34496 8.66816l-501.39648 499.21024-0.256 0.52224c-9.31328 9.5488-20.16768 17.55648-32.57344 22.21056-11.10528 5.43744-24.28928 7.76704-37.9904 7.76704L149.00736 938.84416c-26.88512 0-51.17952-10.34752-68.74624-28.4416-17.5872-17.05984-28.4416-41.35424-28.4416-68.22912 0-26.35264 10.8544-51.16416 28.4416-68.88448 17.57184-17.18784 41.86112-28.17024 68.74624-28.17024l44.96896 0c7.49056 0 14.464-3.10272 18.61632-8.51968l508.89216-505.91744c8.77568-8.01792 18.60608-13.70112 29.19936-17.71008 10.8544-4.00896 22.75328-5.94432 34.38592-5.94432 1.28512 0 3.08736-0.39424 4.6336-0.65024l86.33856 0c26.61376 0 51.1744 11.12064 68.21888 28.42624 18.09408 17.83808 28.69248 41.87136 28.69248 68.49024C972.9536 330.17856 962.3552 354.59584 944.26112 372.03968L944.26112 372.03968zM261.94432 226.78528 261.94432 226.78528l0 0.27136c20.16768 20.02432 48.33792 32.95232 78.57664 32.95232 31.02208 0 59.19232-12.672 79.34464-32.95232 19.90144-20.02944 32.57344-48.19968 32.57344-78.82752 0-31.02208-12.67712-59.19232-32.57344-79.22176-20.15232-20.28032-48.32256-32.95744-79.34464-32.95744-31.01184 0-58.40384 12.672-78.57664 32.95744C241.26976 89.0368 228.864 117.20704 228.864 148.22912c0 30.37184 12.40576 57.89184 32.0512 78.17728L261.94432 226.78528 261.94432 226.78528zM318.55616 125.73184 318.55616 125.73184c5.67296-5.16608 13.43488-8.77568 21.9648-8.77568 8.78592 0 16.7936 3.6096 22.4768 8.77568 5.18144 5.81632 8.54016 13.83424 8.54016 22.49728 0 8.5248-3.36384 16.28672-8.54016 21.70368-5.6832 5.6832-13.69088 9.17504-22.4768 9.17504-8.52992 0-16.29184-3.48672-21.9648-8.5248L318.55616 169.9328c-5.68832-5.42208-9.05216-13.17888-9.05216-21.70368C309.504 139.56608 313.11872 131.54816 318.55616 125.73184L318.55616 125.73184z"
        fill="#8a8a8a" />
</svg>