<?xml version="1.0" standalone="no"?><!DOCTYPE svg PUBLIC "-//W3C//DTD SVG 1.1//EN" "http://www.w3.org/Graphics/SVG/1.1/DTD/svg11.dtd">
<svg class="icon" width="64" height="64" viewBox="0 0 1024 1024" version="1.1" xmlns="http://www.w3.org/2000/svg">
    <path
        d="M721.904 896c-0.64 0-1.264-0.096-1.904-0.112V896H176v-0.72A160 160 0 0 1 190.096 576a156.096 156.096 0 0 1 40.544 5.504 236.176 236.176 0 0 1 450.72 0A156.096 156.096 0 0 1 721.904 576c88.368 0 160 71.632 160 160s-71.632 160-160 160zM720 640a95.632 95.632 0 0 0-71.408 32h-26.496a168 168 0 1 0-332.192 0h-26.496A96 96 0 1 0 176 830.56V832h544a96 96 0 1 0 0-192zM941.568 512h-55.408a22.816 22.816 0 0 1 0-45.6h55.408a22.816 22.816 0 0 1 0 45.6z m-98.48-183.024a21.728 21.728 0 0 1-31.344 0 23.264 23.264 0 0 1 0-32.24l39.184-40.304a21.728 21.728 0 0 1 31.344 0c8.64 9.008 8.64 23.232 0 32.24l-39.184 40.304z m-32.144 174.304a362.816 362.816 0 0 0-44.8-20.672 111.552 111.552 0 0 0-170.624-112.64c-1.2-0.64-2.32-1.328-3.52-1.968a179.2 179.2 0 0 0-49.904-16.288 159.728 159.728 0 0 1 268.848 151.568zM656 262.608a22.48 22.48 0 0 1-22.16-22.8v-57.008a22.176 22.176 0 1 1 44.32 0v57.008A22.48 22.48 0 0 1 656 262.608z m-187.088 66.368l-39.184-40.304a23.264 23.264 0 0 1 0-32.24 21.728 21.728 0 0 1 31.344 0l39.184 40.304c8.64 9.008 8.64 23.232 0 32.24a21.728 21.728 0 0 1-31.344 0z"
        fill="#ffffff" />
</svg>