<?xml version="1.0" standalone="no"?><!DOCTYPE svg PUBLIC "-//W3C//DTD SVG 1.1//EN" "http://www.w3.org/Graphics/SVG/1.1/DTD/svg11.dtd"><svg t="1725726493165" class="icon" viewBox="0 0 1024 1024" version="1.1" xmlns="http://www.w3.org/2000/svg" p-id="27618" xmlns:xlink="http://www.w3.org/1999/xlink" width="64" height="64"><path d="M671.289 803.271H357.262c-18.204 0-31.858 13.653-31.858 29.582 0 18.205 13.654 29.583 31.858 29.583H671.29c18.204 0 31.858-13.654 31.858-29.583-2.276-18.204-13.654-29.582-31.858-29.582zM482.418 976.213c18.204 6.827 38.684 6.827 56.889 0L655.36 921.6H370.916l111.502 54.613z m293.546-841.955C703.147 63.716 614.4 29.582 512 29.582c-104.676 0-191.147 34.134-263.964 104.676-75.094 70.542-111.503 152.462-111.503 250.31 0 13.654 0 27.308 2.276 40.96 0 2.276 2.275 6.828 2.275 9.103 2.276 13.653 2.276 22.756 6.827 34.133v4.552c4.551 13.653 6.827 22.755 11.378 34.133v2.275c0 2.276 0 2.276 2.275 2.276 4.552 13.653 11.378 25.031 15.93 36.409 0 2.275 0 2.275 2.275 2.275 13.653 25.032 29.582 45.512 47.787 68.267l27.306 25.031c4.551 4.551 6.827 4.551 6.827 4.551l6.827 6.827 6.826 4.551 18.205 13.653 2.275 2.276c2.276 2.276 2.276 2.276 4.551 2.276 11.378 9.102 18.205 18.204 25.031 29.582 6.827 11.378 11.378 18.204 15.93 25.03 4.55 4.552 15.928 6.828 29.582 6.828h282.168c13.654 0 25.032-2.276 29.583-6.827 4.55-4.551 11.377-13.653 15.929-25.031 4.55-11.378 13.653-20.48 25.03-29.582l2.276-2.276 4.551-2.276 18.205-13.653c0-2.275 4.55-4.551 6.826-4.551l11.378-11.378 2.276-2.275c11.378-9.103 20.48-18.205 27.306-25.031 9.103-11.378 18.205-22.756 25.032-34.134 6.826-11.378 15.928-22.755 20.48-36.409 2.275 0 2.275 0 2.275-2.275 4.551-9.102 11.378-22.756 15.929-36.41l2.276-2.275v-2.275c4.55-9.102 6.826-20.48 11.377-34.134 0-2.275 0-4.55 2.276-4.55l6.827-34.134c0-2.276 0-6.827 2.275-9.102 2.276-13.654 2.276-27.307 2.276-40.96 0-93.298-36.41-175.218-111.503-245.76z m6.827 207.075c-4.551 2.276-6.827 2.276-11.378 2.276-11.377 0-20.48-6.827-25.03-15.929-11.379-27.307-29.583-52.338-54.614-75.093-27.307-27.307-59.165-45.511-93.298-56.89-13.653-4.55-22.755-20.48-18.204-36.408 4.55-13.653 20.48-22.756 36.409-18.205 40.96 13.654 79.644 36.41 113.777 68.267 29.583 27.307 52.338 59.165 65.991 91.022 6.827 18.205 0 34.134-13.653 40.96z" p-id="27619" fill="#ffffff"></path></svg>