<?xml version="1.0" standalone="no"?><!DOCTYPE svg PUBLIC "-//W3C//DTD SVG 1.1//EN" "http://www.w3.org/Graphics/SVG/1.1/DTD/svg11.dtd">
<svg class="icon" width="64" height="64" viewBox="0 0 1024 1024" version="1.1" xmlns="http://www.w3.org/2000/svg">
    <path
        d="M511.1 563c-23.7 0-47.4-5.7-69-17.1L92.8 361.7c-12.5-6.6-20.3-19.5-20.3-33.7 0-14.2 7.8-27 20.3-33.6l349.2-183c43.2-22.6 94.7-22.6 137.8 0.1L929 295.6c12.5 6.6 20.3 19.5 20.3 33.7s-7.8 27-20.3 33.6L579.8 546c-21.5 11.3-45.1 17-68.7 17zM166 319.3c-7.1 3.7-7.1 13.9 0 17.7l302.1 159.3c26.8 14.1 58.8 14.2 85.6 0.1l302-158.4c7.1-3.7 7.1-13.9 0-17.7L553.7 161c-26.8-14.1-58.8-14.2-85.6-0.1L166 319.3z"
        fill="#0066ff" />
    <path
        d="M511.4 750.8c-22.8 0-45.6-5.2-66.4-15.7L80.8 552.2c-13.8-6.9-19.4-23.8-12.5-37.6 6.9-13.8 23.8-19.4 37.6-12.5L470.1 685c25.8 12.9 56.6 13 82.4 0.1l364.1-181.9c13.8-6.9 30.7-1.3 37.6 12.5 6.9 13.8 1.3 30.7-12.5 37.6l-364.1 182c-20.7 10.3-43.5 15.5-66.2 15.5z"
        fill="#0066ff" />
    <path
        d="M511.4 929.9c-21.8 0-43.6-4.9-63.9-14.6l-366-175.1c-13.9-6.7-19.8-23.4-13.2-37.3 6.7-13.9 23.4-19.8 37.3-13.2l366 175.1c25.2 12 54 12.1 79.2 0.1l366-174.1c14-6.6 30.7-0.7 37.3 13.3 6.6 14 0.7 30.7-13.3 37.3L575 915.5c-20.2 9.6-41.9 14.4-63.6 14.4z"
        fill="#0066ff" />
</svg>