<?xml version="1.0" standalone="no"?><!DOCTYPE svg PUBLIC "-//W3C//DTD SVG 1.1//EN" "http://www.w3.org/Graphics/SVG/1.1/DTD/svg11.dtd">
<svg class="icon" width="64" height="64" viewBox="0 0 1024 1024" version="1.1" xmlns="http://www.w3.org/2000/svg">
    <path
        d="M896 608H112a32 32 0 1 1 0-64h784a32 32 0 1 1 0 64z m0 144H112a32 32 0 1 1 0-64h784a32 32 0 1 1 0 64z m0 144H112a32 32 0 1 1 0-64h784a32 32 0 1 1 0 64z m-128-528a95.648 95.648 0 0 0-71.408 32h-26.496a168 168 0 1 0-332.176 0h-26.512A95.904 95.904 0 0 0 144 464H80c-0.528-87.84 70.256-159.472 158.096-160a156.24 156.24 0 0 1 40.544 5.504 236.192 236.192 0 0 1 450.72 0A156.24 156.24 0 0 1 769.904 304c87.84 0.528 158.624 72.16 158.096 160h-64a96 96 0 0 0-96-96z"
        fill="#ffffff" />
</svg>