<svg width="16" height="16" viewBox="0 0 16 16" fill="none" xmlns="http://www.w3.org/2000/svg">
<path d="M8.06699 6.8C9.39248 6.8 10.467 5.72549 10.467 4.4C10.467 3.07452 9.39248 2 8.06699 2C6.74151 2 5.66699 3.07452 5.66699 4.4C5.66699 5.72549 6.74151 6.8 8.06699 6.8Z" stroke="#787878" stroke-width="1.33333" stroke-linecap="round" stroke-linejoin="round"/>
<path d="M2 13.6007V14.0007H14V13.6007C14 12.1072 14 11.3605 13.7094 10.79C13.4537 10.2883 13.0457 9.88028 12.544 9.62462C11.9735 9.33398 11.2268 9.33398 9.73333 9.33398H6.26667C4.7732 9.33398 4.02647 9.33398 3.45603 9.62462C2.95426 9.88028 2.54631 10.2883 2.29065 10.79C2 11.3605 2 12.1072 2 13.6007Z" stroke="#787878" stroke-width="1.33333" stroke-linecap="round" stroke-linejoin="round"/>
</svg>
