<svg width="16" height="16" viewBox="0 0 16 16" fill="none" xmlns="http://www.w3.org/2000/svg">
<path d="M8.00033 6.66667C9.28899 6.66667 10.3337 5.622 10.3337 4.33333C10.3337 3.04467 9.28899 2 8.00033 2C6.71166 2 5.66699 3.04467 5.66699 4.33333C5.66699 5.622 6.71166 6.66667 8.00033 6.66667Z" stroke="#787878" stroke-width="1.33333" stroke-linecap="round" stroke-linejoin="round"/>
<path d="M4 2.41797C3.3955 2.83962 3 3.54014 3 4.33308C3 5.18184 3.4532 5.92478 4.1308 6.33308" stroke="#787878" stroke-width="1.33333" stroke-linecap="round" stroke-linejoin="round"/>
<path d="M12 2.41797C12.6045 2.83962 13 3.54014 13 4.33308C13 5.12598 12.6045 5.82654 12 6.24818" stroke="#787878" stroke-width="1.33333" stroke-linecap="round" stroke-linejoin="round"/>
<path d="M4 13.334V14.0007H12V13.334C12 12.0915 12 11.4702 11.797 10.9802C11.5264 10.3268 11.0072 9.80762 10.3538 9.53698C9.86377 9.33398 9.2425 9.33398 8 9.33398C6.7575 9.33398 6.13623 9.33398 5.64617 9.53698C4.99277 9.80762 4.47363 10.3268 4.203 10.9802C4 11.4702 4 12.0915 4 13.334Z" stroke="#787878" stroke-width="1.33333" stroke-linecap="round" stroke-linejoin="round"/>
<path d="M14.667 14.001V13.601C14.667 12.1075 14.667 11.3608 14.3763 10.7904C14.1207 10.2886 13.7127 9.88067 13.2109 9.625" stroke="#787878" stroke-width="1.33333" stroke-linecap="round" stroke-linejoin="round"/>
<path d="M1.33301 14.001V13.601C1.33301 12.1075 1.33301 11.3608 1.62366 10.7904C1.87932 10.2886 2.28727 9.88067 2.78903 9.625" stroke="#787878" stroke-width="1.33333" stroke-linecap="round" stroke-linejoin="round"/>
</svg>
