<svg width="13" height="18" viewBox="0 0 13 18" fill="none" xmlns="http://www.w3.org/2000/svg">
<path fill-rule="evenodd" clip-rule="evenodd" d="M5.72917 13.2285V14.0833H3.75C3.40482 14.0833 3.125 14.3632 3.125 14.7083C3.125 15.0535 3.40482 15.3333 3.75 15.3333H5.72917V16.8438C5.72917 17.1889 6.00899 17.4688 6.35417 17.4688C6.69934 17.4688 6.97917 17.1889 6.97917 16.8438V15.3333H8.75C9.09518 15.3333 9.375 15.0535 9.375 14.7083C9.375 14.3632 9.09518 14.0833 8.75 14.0833H6.97917V13.2079C10.0875 12.8467 12.5 10.2052 12.5 7C12.5 3.54813 9.70187 0.75 6.25 0.75C2.79813 0.75 0 3.54813 0 7C0 10.2765 2.52104 12.964 5.72917 13.2285ZM11.25 7C11.25 9.76146 9.01146 12 6.25 12C3.48854 12 1.25 9.76146 1.25 7C1.25 4.23854 3.48854 2 6.25 2C9.01146 2 11.25 4.23854 11.25 7Z" fill="#FF6868"/>
</svg>
