<svg width="16" height="16" viewBox="0 0 16 16" fill="none" xmlns="http://www.w3.org/2000/svg">
<path d="M8.36699 2.16602C8.44063 2.16602 8.50033 2.22571 8.50033 2.29935V7.49935H13.7003C13.774 7.49935 13.8337 7.55904 13.8337 7.63268V8.36602C13.8337 8.43965 13.774 8.49935 13.7003 8.49935H8.50033V13.6993C8.50033 13.773 8.44063 13.8327 8.36699 13.8327H7.63366C7.56002 13.8327 7.50033 13.773 7.50033 13.6993V8.49935H2.30033C2.22669 8.49935 2.16699 8.43965 2.16699 8.36602V7.63268C2.16699 7.55904 2.22669 7.49935 2.30033 7.49935H7.50033V2.29935C7.50033 2.22571 7.56002 2.16602 7.63366 2.16602H8.36699Z" fill="#1677FF"/>
</svg>
