<svg width="16" height="16" viewBox="0 0 16 16" fill="none" xmlns="http://www.w3.org/2000/svg">
<path fill-rule="evenodd" clip-rule="evenodd" d="M9.12535 1.50487C10.0404 1.30397 10.9954 1.39426 11.8566 1.76308C11.9481 1.80229 12.0142 1.88437 12.033 1.98215C12.0518 2.07994 12.0208 2.18067 11.9503 2.25099L9.40795 4.78726L11.2135 6.59283L13.7498 4.05051C13.8201 3.98001 13.9208 3.94903 14.0186 3.96781C14.1164 3.9866 14.1985 4.0527 14.2377 4.14423C14.6065 5.00542 14.6968 5.96038 14.4959 6.87543C14.295 7.79048 13.813 8.6198 13.1173 9.24728C12.4217 9.87477 11.5472 10.269 10.6164 10.3748C9.76702 10.4713 8.90953 10.3233 8.14394 9.95069L4.61922 14.0346C4.61443 14.0401 4.60944 14.0455 4.60425 14.0507C4.25229 14.4027 3.77492 14.6004 3.27717 14.6004C2.77942 14.6004 2.30205 14.4027 1.95009 14.0507C1.59812 13.6987 1.40039 13.2214 1.40039 12.7236C1.40039 12.2259 1.59812 11.7485 1.95009 11.3965C1.95527 11.3913 1.96065 11.3863 1.9662 11.3816L6.05009 7.85684C5.67749 7.09125 5.52947 6.23375 5.62599 5.3844C5.73178 4.45355 6.12602 3.57909 6.7535 2.88343C7.38098 2.18778 8.2103 1.70576 9.12535 1.50487Z" fill="white"/>
</svg>
