<svg width="14" height="15" viewBox="0 0 14 15" fill="none" xmlns="http://www.w3.org/2000/svg">
<path fill-rule="evenodd" clip-rule="evenodd" d="M10.027 1.37882H12.0228L10.1736 3.21767C9.06286 2.31995 7.6746 1.83087 6.24324 1.83298C2.79527 1.83298 0 4.6127 0 8.04149C0 11.4703 2.79527 14.25 6.24324 14.25C9.69122 14.25 12.4865 11.4703 12.4865 8.04149C12.4887 6.5609 11.9567 5.12864 10.9872 4.00502L12.8649 2.13776V4.20087C12.8649 4.51258 13.119 4.76528 13.4324 4.76528C13.7459 4.76528 14 4.51258 14 4.20087V0.81441C14 0.502695 13.7459 0.25 13.4324 0.25H10.027C9.71357 0.25 9.45946 0.502695 9.45946 0.81441C9.45946 1.12612 9.71357 1.37882 10.027 1.37882ZM11.3513 8.04149C11.3513 10.847 9.06443 13.1212 6.24324 13.1212C3.42205 13.1212 1.13513 10.847 1.13513 8.04149C1.13513 5.236 3.42205 2.9618 6.24324 2.9618C9.06443 2.9618 11.3513 5.236 11.3513 8.04149Z" fill="#2896FF"/>
</svg>
