<?xml version="1.0" standalone="no"?><!DOCTYPE svg PUBLIC "-//W3C//DTD SVG 1.1//EN" "http://www.w3.org/Graphics/SVG/1.1/DTD/svg11.dtd">
<svg class="icon" viewBox="0 0 1024 1024" version="1.1" xmlns="http://www.w3.org/2000/svg"
    xmlns:xlink="http://www.w3.org/1999/xlink" width="64" height="64">
    <path
        d="M579.035429 224.402286V109.714286h33.097142v113.042285l23.149715-25.526857 23.003428 25.380572-40.411428 44.617143h0.036571l-5.778286 6.326857v0.438857h-0.402285L594.870857 292.571429 532.845714 224.256l23.04-25.380571 23.113143 25.526857z m-110.957715-19.382857l-23.149714-25.563429V292.571429h-33.060571V177.883429l-23.149715 25.526857L365.714286 178.029714 427.702857 109.714286l16.822857 18.505143h0.365715v0.475428l5.814857 6.363429h-0.073143l40.484571 44.580571-23.04 25.344z"
        fill="#8a8a8a" />
    <path
        d="M922.587429 311.661714V111.286857c0-24.576-19.346286-44.507429-43.227429-44.507428H144.64c-23.881143 0-43.227429 19.931429-43.227429 44.507428v200.374857h821.174858z m0 66.779429H101.412571v534.272c0 24.576 19.346286 44.507429 43.227429 44.507428h734.72c23.881143 0 43.227429-19.931429 43.227429-44.507428v-534.308572zM123.026286 0h777.947428C948.736 0 987.428571 39.862857 987.428571 89.051429v845.897142C987.428571 984.137143 948.736 1024 900.973714 1024H123.026286C75.264 1024 36.571429 984.137143 36.571429 934.948571V89.051429C36.571429 39.862857 75.264 0 123.026286 0z m403.2 204.324571l-18.249143-8.411428m-255.268572 271.579428h237.714286v178.102858h-237.714286v-178.102858z m280.868572 0h237.714286v178.102858h-237.714286v-178.102858zM252.708571 690.102857h237.714286v178.102857h-237.714286v-178.102857z m280.868572 0h237.714286v178.102857h-237.714286v-178.102857z"
        fill="#8a8a8a" />
</svg>