<?xml version="1.0" standalone="no"?><!DOCTYPE svg PUBLIC "-//W3C//DTD SVG 1.1//EN" "http://www.w3.org/Graphics/SVG/1.1/DTD/svg11.dtd"><svg class="icon" width="256px" height="256.00px" viewBox="0 0 1024 1024" version="1.1" xmlns="http://www.w3.org/2000/svg"><path d="M931.84 343.04v465.92c0 45.24544-36.67456 81.92-81.92 81.92H174.08c-45.24544 0-81.92-36.67456-81.92-81.92V343.04h839.68zM303.9232 428.11392c-19.16928 0.98304-34.89792 0.49152-49.64352 13.76256-5.40672 4.9152-6.88128 12.288-7.3728 19.6608 0 8.35584 1.96608 13.76256 6.38976 17.69472 14.7456 12.77952 44.72832 9.8304 62.42304 9.8304h32.93184c7.86432 0 30.47424-3.44064 26.54208 7.3728-2.4576 9.8304-18.67776 26.54208-28.50816 36.37248-1.15712 1.3056-2.49344 2.7136-3.97312 4.1984l-1.52064 1.51552c-3.96288 3.9168-8.71424 8.35584-13.5424 13.14304l-1.93536 1.93536c-17.08032 17.23392-33.8944 38.49216-18.8416 55.8848 10.752 12.0576 26.38848 15.17056 42.44992 17.68448l4.0192 0.61952c12.7488 1.95584 25.5232 3.97824 36.10624 10.20416 26.54208 15.23712 31.45728 51.11808 1.96608 68.8128-25.55904 15.23712-53.08416 10.81344-77.16864-3.93216-15.72864-8.84736-32.44032-21.13536-52.10112-14.25408-26.54208 9.33888-17.69472 41.7792-1.96608 57.01632 22.60992 23.10144 63.8976 32.93184 94.37184 32.93184 70.28736 0 121.40544-47.67744 121.40544-110.592 0-62.91456-47.18592-88.4736-98.79552-95.35488 14.25408-14.7456 34.89792-33.42336 49.152-48.16896 15.72864-15.72864 37.35552-37.84704 35.88096-63.8976-0.98304-22.60992-22.1184-29.4912-41.7792-30.47424-24.08448-0.98304-53.08416-1.96608-76.1856-1.96608-14.7456 0-25.55904-0.49152-40.30464 0z m306.70848 2.94912a338.88256 338.88256 0 0 0-23.59296 9.8304c-20.64384 9.33888-42.76224 39.3216-52.10112 61.44-12.77952 30.96576-19.6608 65.37216-19.6608 98.79552 0 49.64352 16.71168 100.7616 48.16896 136.15104 13.27104 15.23712 29.4912 28.01664 47.18592 34.89792 11.79648 4.42368 24.08448 5.89824 35.88096 5.89824 32.93184-0.98304 62.91456-15.23712 87.49056-39.3216 27.52512-27.52512 35.38944-65.37216 40.30464-103.71072 2.4576-20.64384 3.44064-41.7792 0.98304-62.42304-7.3728-62.42304-33.42336-127.30368-93.3888-141.55776-21.62688-4.9152-50.13504-6.38976-71.2704 0z m102.72768 150.89664c2.94912 39.81312-1.96608 100.7616-39.81312 123.86304-11.79648 7.3728-25.55904 8.35584-38.83008 4.9152-14.25408-3.93216-25.06752-13.27104-32.93184-25.06752-16.22016-24.576-21.62688-57.01632-21.62688-85.03296 0-27.0336 4.42368-55.05024 18.18624-78.6432 5.40672-9.33888 12.77952-18.18624 21.62688-24.08448 7.86432-4.9152 17.2032-6.38976 26.05056-6.38976 48.66048-1.47456 64.38912 51.11808 67.33824 90.43968zM701.44 133.12c26.08128 0 48.91136 16.41472 61.45024 40.96H865.28c36.7616 0 66.56 29.7984 66.56 66.56v61.44H92.16V240.64c0-36.7616 29.7984-66.56 66.56-66.56h102.38976c12.544-24.54528 35.36896-40.96 61.45024-40.96s48.91136 16.41472 61.45024 40.96h255.97952c12.544-24.54528 35.36896-40.96 61.45024-40.96z m20.48 40.96h-40.96v87.04h40.96V174.08z m-378.88 0h-40.96v87.04h40.96V174.08z" fill="#0066ff" /></svg>