<svg width="24" height="25" viewBox="0 0 24 25" fill="none" xmlns="http://www.w3.org/2000/svg">
<path d="M6 10.7734C6.82843 10.7734 7.5 11.445 7.5 12.2734C7.5 13.1019 6.82843 13.7734 6 13.7734C5.17157 13.7734 4.5 13.1019 4.5 12.2734C4.5 11.445 5.17157 10.7734 6 10.7734ZM12 10.7734C12.8284 10.7734 13.5 11.445 13.5 12.2734C13.5 13.1019 12.8284 13.7734 12 13.7734C11.1716 13.7734 10.5 13.1019 10.5 12.2734C10.5 11.445 11.1716 10.7734 12 10.7734ZM18 10.7734C18.8284 10.7734 19.5 11.445 19.5 12.2734C19.5 13.1019 18.8284 13.7734 18 13.7734C17.1716 13.7734 16.5 13.1019 16.5 12.2734C16.5 11.445 17.1716 10.7734 18 10.7734Z" fill="#9F9F9F"/>
</svg>
