<?xml version="1.0" standalone="no"?><!DOCTYPE svg PUBLIC "-//W3C//DTD SVG 1.1//EN" "http://www.w3.org/Graphics/SVG/1.1/DTD/svg11.dtd">
<svg class="icon" width="100" height="100" viewBox="0 0 1024 1024" version="1.1" xmlns="http://www.w3.org/2000/svg">
    <path
        d="M274.141867 715.690667v14.208h483.4816v-10.3936c20.2496 10.666667 31.709867 22.8096 31.709866 35.694933l-0.034133 1.271467C786.850133 798.293333 663.637333 832 512 832c-153.173333 0-277.333333-34.389333-277.333333-76.8l0.034133-1.271467c0.8192-13.969067 15.112533-27.0336 39.441067-38.237866z"
        fill="#e6e6e6" />
    <path
        d="M768.392533 466.722133L669.9264 375.099733c-3.1744-3.2256-7.816533-4.6336-12.407467-4.6336h-282.197333c-4.599467 0-8.874667 1.757867-12.0576 4.625067L264.0896 466.730667c-3.8656 3.464533-6.058667 8.4224-6.007467 13.610666v224.443734c0 22.536533 18.056533 41.147733 40.746667 41.147733h434.884267c22.280533 0 40.738133-18.602667 40.738133-41.147733V480.341333c-0.059733-5.0432-2.525867-10.043733-6.058667-13.6192z m-177.783466-1.408c-6.3488 0-11.690667 5.341867-11.690667 12.151467 0 33.6384-28.3392 61.917867-61.969067 61.917867-33.629867 0-61.952-28.279467-61.952-61.917867 0-6.4512-5.316267-12.151467-11.716266-12.151467H305.186133l73.659734-68.027733h275.5072l72.96 68.0192h-136.704v0.008533z m156.501333 24.302934v215.1168c0 7.867733-5.9904 13.6192-13.457067 13.6192H298.837333c-7.816533 0-14.165333-6.109867-14.165333-13.6192V489.617067h147.319467a85.111467 85.111467 0 0 0 25.873066 49.408 84.352 84.352 0 0 0 59.136 24.0128c21.9392 0 42.862933-8.567467 59.144534-24.004267 13.824-13.6192 23.048533-30.762667 25.873066-49.408h145.117867-0.008533zM366.865067 300.484267l-51.234134-49.160534a13.994667 13.994667 0 0 1-0.4608-19.6096 13.602133 13.602133 0 0 1 19.3792-0.4608l51.157334 49.160534a13.994667 13.994667 0 0 1 0.512 19.6096 13.602133 13.602133 0 0 1-19.370667 0.4608h0.017067zM508.0064 278.749867a13.994667 13.994667 0 0 1-4.258133-9.659734l-1.826134-71.355733a13.858133 13.858133 0 0 1 13.312-14.267733 13.832533 13.832533 0 0 1 14.097067 13.5168l1.774933 71.364266a13.8496 13.8496 0 0 1-8.106666 12.996267 13.5936 13.5936 0 0 1-15.010134-2.594133h0.017067zM640.878933 297.949867a13.7728 13.7728 0 0 1-4.266666-9.710934 13.9008 13.9008 0 0 1 3.754666-9.898666l48.631467-51.797334a13.602133 13.602133 0 0 1 19.3792-0.469333c5.461333 5.290667 5.6832 14.0288 0.452267 19.618133l-48.64 51.797334c-2.5344 2.645333-5.981867 4.206933-9.6 4.317866a13.994667 13.994667 0 0 1-9.710934-3.857066z"
        fill="#ABB1B4" />
</svg>