<?xml version="1.0" standalone="no"?><!DOCTYPE svg PUBLIC "-//W3C//DTD SVG 1.1//EN" "http://www.w3.org/Graphics/SVG/1.1/DTD/svg11.dtd">
<svg class="icon" width="64" height="64" viewBox="0 0 1024 1024" version="1.1" xmlns="http://www.w3.org/2000/svg">
    <path
        d="M539.093333 916.352L512 938.666667l-27.093333-22.314667C248.234667 721.664 128 568.917333 128 426.666667a384 384 0 1 1 768 0c0 142.250667-120.234667 294.997333-356.906667 489.685333zM810.666667 426.666667a298.666667 298.666667 0 0 0-597.333334 0c0 104.490667 98.432 231.68 298.666667 401.194666 200.234667-169.557333 298.666667-296.704 298.666667-401.194666z"
        fill="#0066ff" />
    <path
        d="M512 597.333333a170.666667 170.666667 0 1 1 0-341.333333 170.666667 170.666667 0 0 1 0 341.333333z m0-85.333333a85.333333 85.333333 0 1 0 0-170.666667 85.333333 85.333333 0 0 0 0 170.666667z"
        fill="#0066ff" />
</svg>