<?xml version="1.0" standalone="no"?><!DOCTYPE svg PUBLIC "-//W3C//DTD SVG 1.1//EN" "http://www.w3.org/Graphics/SVG/1.1/DTD/svg11.dtd">
<svg class="icon" width="64" height="64" viewBox="0 0 1024 1024" version="1.1" xmlns="http://www.w3.org/2000/svg">
    <path
        d="M785.904 624c-0.64 0-1.264-0.096-1.904-0.112V624H240v-0.72A160 160 0 0 1 254.096 304a156.096 156.096 0 0 1 40.544 5.504 236.176 236.176 0 0 1 450.72 0A156.096 156.096 0 0 1 785.904 304c88.368 0 160 71.632 160 160s-71.632 160-160 160zM784 368a95.392 95.392 0 0 0-71.088 32h-26.816a168 168 0 1 0-332.192 0h-26.816A95.776 95.776 0 1 0 240 558.4v1.6h544a96 96 0 1 0 0-192zM525.312 719.984s58.272 52 62.16 80c0.272 2.464-0.016 4.96-0.848 7.296 0.48 2.88 0.768 5.792 0.848 8.704a62.192 62.192 0 1 1-124.32 0c0.048-3.76 0.416-7.52 1.088-11.2a13.632 13.632 0 0 1-1.088-4.8c0-21.328 62.16-80 62.16-80z"
        fill="#ffffff" />
</svg>