<?xml version="1.0" standalone="no"?><!DOCTYPE svg PUBLIC "-//W3C//DTD SVG 1.1//EN" "http://www.w3.org/Graphics/SVG/1.1/DTD/svg11.dtd"><svg t="1725726386829" class="icon" viewBox="0 0 1024 1024" version="1.1" xmlns="http://www.w3.org/2000/svg" p-id="18601" xmlns:xlink="http://www.w3.org/1999/xlink" width="64" height="64"><path d="M878.473579 206.100008c-151.972227 0-268.407076-43.331901-366.853226-138.868791-98.44615 95.537913-214.870766 138.868791-366.832759 138.868791 0 248.791319-51.620681 605.200682 366.82355 749.926878 418.443208-144.726196 366.862435-501.135558 366.862435-749.926878z m-129.874953 183.560666L505.118266 682.507372a47.370891 47.370891 0 0 1-13.789051 16.667611c-21.36254 16.042371-52.027957 12.131295-68.496024-8.706289L274.841625 502.83834c-16.068977-20.312628-12.628622-49.804313 7.684007-65.87329 0.411369-0.325411 0.827855-0.64366 1.25048-0.955768 21.303188-16.072047 51.997258-12.100596 68.446905 8.746198l110.259196 139.782603L673.738661 330.406129c16.012695-19.258623 45.754067-21.621437 66.411549-5.241375s24.460088 45.207621 8.448416 64.49592z" fill="#ffffff" p-id="18602"></path></svg>