<?xml version="1.0" standalone="no"?><!DOCTYPE svg PUBLIC "-//W3C//DTD SVG 1.1//EN" "http://www.w3.org/Graphics/SVG/1.1/DTD/svg11.dtd">
<svg class="icon" width="64" height="64" viewBox="0 0 1024 1024" version="1.1" xmlns="http://www.w3.org/2000/svg">
    <path
        d="M739.100444 938.382222c-31.459556 0-57.116444-29.639111-57.173333-65.991111V152.064c0-36.636444 25.6-66.389333 57.173333-66.389333 31.459556 0 57.059556 29.639111 57.059556 66.161777v720.327112c0 36.465778-25.6 66.218667-57.059556 66.218666z m-454.542222 0c-31.402667 0-57.002667-29.639111-57.059555-65.991111l-0.113778-35.157333V187.278222l0.113778-35.157333c0-36.693333 25.6-66.446222 57.116444-66.446222 31.459556 0 57.059556 29.639111 57.059556 66.161777v720.384c0 36.465778-25.6 66.161778-57.059556 66.161778z"
        fill="#0066ff" />
</svg>