<?xml version="1.0" standalone="no"?><!DOCTYPE svg PUBLIC "-//W3C//DTD SVG 1.1//EN" "http://www.w3.org/Graphics/SVG/1.1/DTD/svg11.dtd">
<svg class="icon" width="64" height="64" viewBox="0 0 1024 1024" version="1.1" xmlns="http://www.w3.org/2000/svg">
    <path
        d="M517.33333334 955.00000001c-27.6 0-50-22.4-50-50V153.90000001c0-27.6 22.4-50 50-50s50 22.4 50 50V905.00000001c0 27.6-22.4 50-50 50z"
        fill="#0066ff" />
    <path
        d="M796.83333334 426.80000001c-12.8 0-25.6-4.9-35.3-14.6L517.33333334 168.10000001 273.23333334 412.20000001c-19.5 19.5-51.2 19.5-70.7 0s-19.5-51.2 0-70.7L481.93333334 62.00000001c19.5-19.5 51.2-19.5 70.7 0l279.5 279.4c19.5 19.5 19.5 51.2 0 70.7-9.7 9.8-22.5 14.7-35.3 14.7z"
        fill="#0066ff" />
</svg>