<?xml version="1.0" standalone="no"?><!DOCTYPE svg PUBLIC "-//W3C//DTD SVG 1.1//EN" "http://www.w3.org/Graphics/SVG/1.1/DTD/svg11.dtd">
<svg class="icon" width="64" height="64" viewBox="0 0 1024 1024" version="1.1" xmlns="http://www.w3.org/2000/svg">
    <path d="M512 904.46666667c-27.6 0-50-22.4-50-50v-751c0-27.6 22.4-50 50-50s50 22.4 50 50v751.1c0 27.6-22.4 49.9-50 49.9z"
        fill="#0066ff" />
    <path
        d="M512 958.16666667c-12.8 0-25.6-4.9-35.4-14.6L197.2 664.06666667c-19.5-19.5-19.5-51.2 0-70.7s51.2-19.5 70.7 0L512 837.46666667l244.1-244.1c19.5-19.5 51.2-19.5 70.7 0s19.5 51.2 0 70.7L547.4 943.56666667c-9.8 9.7-22.6 14.6-35.4 14.6z"
        fill="#0066ff" />
</svg>