<?xml version="1.0" standalone="no"?><!DOCTYPE svg PUBLIC "-//W3C//DTD SVG 1.1//EN" "http://www.w3.org/Graphics/SVG/1.1/DTD/svg11.dtd">
<svg class="icon" width="64" height="64" viewBox="0 0 1024 1024" version="1.1" xmlns="http://www.w3.org/2000/svg">
    <path
        d="M662.627 361.373c12.497 12.496 12.497 32.758 0 45.254l-256 256c-12.496 12.497-32.758 12.497-45.254 0-12.497-12.496-12.497-32.758 0-45.254l256-256c12.496-12.497 32.758-12.497 45.254 0z"
        fill="#0066ff" />
    <path
        d="M242.482 527.945c-70.815 70.815-70.815 185.629 0 256.444 70.815 70.815 185.629 70.815 256.444 0l57.191-57.192c12.497-12.497 32.759-12.497 45.255 0 12.497 12.497 12.497 32.758 0 45.255l-57.191 57.192c-95.809 95.808-251.146 95.808-346.954 0-95.809-95.809-95.809-251.145 0-346.954l57.192-57.192c12.496-12.496 32.758-12.496 45.254 0 12.497 12.497 12.497 32.758 0 45.255l-57.191 57.192zM433.32 291.852c-12.497-12.497-12.497-32.758 0-45.255l37.65-37.65c95.809-95.809 251.145-95.809 346.954 0 95.808 95.809 95.808 251.145 0 346.954l-37.65 37.65c-12.497 12.496-32.758 12.496-45.255 0-12.497-12.497-12.497-32.758 0-45.255l37.65-37.65c70.815-70.815 70.815-185.629 0-256.444-70.815-70.815-185.629-70.815-256.444 0l-37.65 37.65c-12.497 12.497-32.758 12.497-45.255 0z"
        fill="#0066ff" />
</svg>