<?xml version="1.0" standalone="no"?><!DOCTYPE svg PUBLIC "-//W3C//DTD SVG 1.1//EN" "http://www.w3.org/Graphics/SVG/1.1/DTD/svg11.dtd"><svg class="icon" width="256px" height="256.00px" viewBox="0 0 1024 1024" version="1.1" xmlns="http://www.w3.org/2000/svg"><path d="M298.678857 170.678857h426.642286A170.678857 170.678857 0 0 1 896 341.321143v341.357714a170.678857 170.678857 0 0 1-170.678857 170.642286H298.678857A170.678857 170.678857 0 0 1 128 682.678857V341.321143a170.678857 170.678857 0 0 1 170.678857-170.642286z" fill="#97C3F6" /><path d="M236.8 529.078857c85.284571-64 174.518857-93.732571 240.201143-83.382857 75.702857 11.995429 104.704 76.324571 62.427428 146.761143l-10.057142 16.822857-3.657143 6.912c-2.852571 6.473143-1.645714 8.923429 5.741714 8.155429l5.193143-0.841143 10.825143-2.596572 41.069714-11.702857a32 32 0 0 1 17.554286 61.549714c-120.393143 34.413714-179.931429-7.460571-125.44-104.521142l3.913143-6.692572c19.163429-31.926857 12.909714-45.787429-17.554286-50.614857-46.518857-7.314286-119.222857 16.896-191.817143 71.314286a32 32 0 0 1-38.4-51.2z" fill="#FFFFFF" /><path d="M597.321143 611.328v17.993143c0 29.476571 23.881143 53.357714 53.357714 53.357714h17.993143c22.601143 0 44.324571-8.996571 60.342857-25.014857l220.306286-220.342857a75.410286 75.410286 0 1 0-106.642286-106.642286l-220.342857 220.342857a85.321143 85.321143 0 0 0-25.014857 60.342857z" fill="#4E9DF2" /></svg>