<?xml version="1.0" standalone="no"?><!DOCTYPE svg PUBLIC "-//W3C//DTD SVG 1.1//EN" "http://www.w3.org/Graphics/SVG/1.1/DTD/svg11.dtd"><svg class="icon" width="256px" height="256.00px" viewBox="0 0 1024 1024" version="1.1" xmlns="http://www.w3.org/2000/svg"><path d="M368 291.2c0 81.6 65.6 147.2 147.2 147.2s147.2-65.6 147.2-147.2S595.2 144 513.6 144 368 209.6 368 291.2zM121.6 284.8c0 65.6 52.8 118.4 118.4 118.4 65.6 0 118.4-52.8 118.4-118.4 0-65.6-52.8-118.4-118.4-118.4s-118.4 54.4-118.4 118.4zM672 284.8c0 65.6 52.8 118.4 118.4 118.4s118.4-52.8 118.4-118.4-52.8-118.4-118.4-118.4-118.4 54.4-118.4 118.4z" fill="#F78181" /><path d="M998.4 624c0-94.4-54.4-176-131.2-208l-76.8 96-76.8-96c-25.6 11.2-48 27.2-67.2 46.4l-28.8-14.4-104 129.6-104-129.6c-9.6 3.2-19.2 8-27.2 12.8-19.2-19.2-41.6-35.2-67.2-46.4L238.4 512l-75.2-96C86.4 449.6 32 529.6 32 624c0 11.2 0 20.8 1.6 32 52.8 48 121.6 78.4 195.2 81.6 0 14.4 1.6 27.2 3.2 41.6 75.2 70.4 174.4 112 281.6 112s206.4-41.6 281.6-112c1.6-12.8 3.2-27.2 3.2-41.6 75.2-1.6 144-32 196.8-81.6 1.6-9.6 3.2-20.8 3.2-32z" fill="#F78181" /><path d="M800 734.4c0-118.4-62.4-220.8-152-272-40 40-64 97.6-64 161.6 0 11.2 0 20.8 1.6 32 56 51.2 126.4 81.6 204.8 81.6h9.6c-1.6 0 0-1.6 0-3.2z m-571.2 0v3.2h9.6c78.4 0 150.4-30.4 204.8-81.6 1.6-9.6 1.6-20.8 1.6-32 0-64-24-121.6-64-161.6-89.6 51.2-152 155.2-152 272z" fill="#F74141" /></svg>