<?xml version="1.0" standalone="no"?><!DOCTYPE svg PUBLIC "-//W3C//DTD SVG 1.1//EN" "http://www.w3.org/Graphics/SVG/1.1/DTD/svg11.dtd"><svg class="icon" width="256px" height="256.00px" viewBox="0 0 1024 1024" version="1.1" xmlns="http://www.w3.org/2000/svg"><path d="M869.872485 739.328c20.48 15.515152 24.513939 44.683636 8.998788 65.194667-43.287273 57.095758-107.054545 85.860848-185.778425 86.202181l-9.929696-0.09309H299.287273a46.545455 46.545455 0 0 1-4.499394-92.873697l4.499394-0.217213h385.05503c55.916606 1.396364 94.332121-14.987636 120.304485-49.24509a46.545455 46.545455 0 0 1 65.225697-8.998788zM459.248485 179.851636a129.303273 129.303273 0 0 1 181.837576-19.114666l30.502787 24.700121a129.303273 129.303273 0 0 1 19.114667 181.837576L404.635152 720.647758a46.545455 46.545455 0 0 1-23.055516 15.36l-178.424242 52.472242a46.545455 46.545455 0 0 1-59.392-49.586424l19.300848-181.310061a46.545455 46.545455 0 0 1 10.084849-24.358788z m123.283394 53.21697a36.212364 36.212364 0 0 0-50.920727 5.368242L254.138182 581.104485l-10.488243 98.428121 97.714425-28.734061 277.038545-342.10909a36.212364 36.212364 0 0 0-2.420364-48.252122l-2.947878-2.668606z" fill="#0066ff" /></svg>