<?xml version="1.0" standalone="no"?><!DOCTYPE svg PUBLIC "-//W3C//DTD SVG 1.1//EN" "http://www.w3.org/Graphics/SVG/1.1/DTD/svg11.dtd">
<svg class="icon" width="64" height="64" viewBox="0 0 1024 1024" version="1.1" xmlns="http://www.w3.org/2000/svg">
    <path
        d="M785.904 688c-0.64 0-1.264-0.096-1.904-0.112V688h-64v-64h64a96 96 0 1 0-71.408-160h-26.496a168 168 0 1 0-332.192 0h-26.496A96 96 0 1 0 240 622.56V624h96v64h-96v-0.72A160 160 0 0 1 254.096 368a156.096 156.096 0 0 1 40.544 5.504 236.176 236.176 0 0 1 450.72 0A156.096 156.096 0 0 1 785.904 368c88.368 0 160 71.632 160 160s-71.632 160-160 160z"
        fill="#ffffff" />
    <path
        d="M503.744 677.328V633.6c0-14.144 11.2-25.6 25.04-25.6 13.824 0 25.04 11.456 25.04 25.6v43.728c4.448 1.984 8.624 4.48 12.464 7.424l36.304-21.44a24.736 24.736 0 0 1 34.048 9.456 25.92 25.92 0 0 1-9.024 34.88L591.04 729.28a66.176 66.176 0 0 1-0.192 15.2l36 21.264a25.92 25.92 0 0 1 9.024 34.88 24.736 24.736 0 0 1-34.064 9.44l-36.896-21.76c-3.904 2.816-8.144 5.2-12.64 7.056V838.4c0 14.144-11.2 25.6-25.04 25.6-13.824 0-25.04-11.456-25.04-25.6v-44.448a62.352 62.352 0 0 1-11.568-7.232l-37.2 21.952a24.736 24.736 0 0 1-34.048-9.44 25.92 25.92 0 0 1 9.024-34.88l38.08-22.496a66.256 66.256 0 0 1 0.16-13.456l-37.456-22.128a25.712 25.712 0 0 1-12.656-22.192 25.712 25.712 0 0 1 12.56-22.24 24.56 24.56 0 0 1 25.12 0.096l37.776 22.304c3.648-2.72 7.6-5.04 11.776-6.912z"
        fill="#ffffff" />
</svg>