<?xml version="1.0" standalone="no"?><!DOCTYPE svg PUBLIC "-//W3C//DTD SVG 1.1//EN" "http://www.w3.org/Graphics/SVG/1.1/DTD/svg11.dtd">
<svg class="icon" width="64" height="64" viewBox="0 0 1024 1024" version="1.1" xmlns="http://www.w3.org/2000/svg">
    <path
        d="M887.936 314.048l-234.688 243.2L608 512l234.688-243.2 45.248 45.248zM513.408 707.328a64 64 0 1 1 0-128 64 64 0 0 1 0 128z m0 64a128 128 0 1 0 0-256 128 128 0 0 0 0 256z"
        fill="#0066ff" />
    <path
        d="M512 224a416 416 0 0 0-341.44 653.696l-52.48 36.608A480 480 0 0 1 734.72 214.656l-29.76 56.704A414.08 414.08 0 0 0 512 224z m416 416a414.08 414.08 0 0 0-46.848-192l56.768-29.568A478.08 478.08 0 0 1 992 640a477.952 477.952 0 0 1-86.08 274.304l-52.48-36.608A413.952 413.952 0 0 0 928 640z"
        fill="#0066ff" />
</svg>