<?xml version="1.0" standalone="no"?><!DOCTYPE svg PUBLIC "-//W3C//DTD SVG 1.1//EN" "http://www.w3.org/Graphics/SVG/1.1/DTD/svg11.dtd">
<svg class="icon" width="64" height="64" viewBox="0 0 1024 1024" version="1.1" xmlns="http://www.w3.org/2000/svg">
    <path
        d="M0.292514 511.899448c0 37.880559 4.095196 74.883576 11.919944 110.424024 1.828212 8.190391 9.141062 13.894414 17.550838 13.894414h59.599722a19.159665 19.159665 0 0 0 18.135866-23.913017A416.832408 416.832408 0 0 1 785.765653 197.44693l-61.208548 64.133688a18.282123 18.282123 0 0 0 13.163129 30.933352h208.196818a17.550838 17.550838 0 0 0 15.795754-25.741229A511.899448 511.899448 0 0 0 0.292514 511.899448zM916.88504 411.494028a19.159665 19.159665 0 0 1 18.135867-23.913017h59.599721c8.409777 0 15.722626 5.704022 17.550838 13.894413A511.899448 511.899448 0 0 1 62.744247 757.026156 17.550838 17.550838 0 0 1 78.393744 731.284926H286.663691a18.282123 18.282123 0 0 1 13.236257 30.933353l-61.281677 64.133688a416.832408 416.832408 0 0 0 678.266769-414.857939z"
        fill="#0066ff" />
    <path
        d="M741.742301 459.173805a14.625699 14.625699 0 0 0 0-20.695363l-46.802236-46.436593a14.625699 14.625699 0 0 0-20.622235 0L491.789113 574.716823 365.934977 448.789559a14.625699 14.625699 0 0 0-20.695363 0l-46.509722 46.509721a14.625699 14.625699 0 0 0 0 20.695364L465.828498 683.239507a36.564246 36.564246 0 0 0 51.774973 0l224.065701-224.065702z"
        fill="#0066ff" />
</svg>