<?xml version="1.0" standalone="no"?><!DOCTYPE svg PUBLIC "-//W3C//DTD SVG 1.1//EN" "http://www.w3.org/Graphics/SVG/1.1/DTD/svg11.dtd">
<svg class="icon" width="64" height="64" viewBox="0 0 1024 1024" version="1.1" xmlns="http://www.w3.org/2000/svg">
    <path
        d="M213.333333 576c-68.266667-68.266667-98.133333-166.4-76.8-260.266667 4.266667-21.333333 21.333333-38.4 42.666667-46.933333 21.333333-4.266667 42.666667 0 59.733333 17.066667l72.533334 72.533333c25.6 25.6 64 25.6 89.6 0 25.6-25.6 25.6-64 0-89.6L324.266667 192c-12.8-12.8-21.333333-38.4-12.8-59.733333 4.266667-21.333333 25.6-38.4 46.933333-42.666667 93.866667-21.333333 192 8.533333 260.266667 76.8 38.4 42.666667 64 89.6 76.8 145.066667 12.8 51.2 8.533333 102.4-8.533334 153.6l213.333334 213.333333c51.2 51.2 51.2 132.266667 0 179.2-51.2 51.2-132.266667 51.2-179.2 0l-213.333334-213.333333c-51.2 17.066667-102.4 21.333333-153.6 8.533333C298.666667 640 251.733333 614.4 213.333333 576z m-17.066666-243.2c-12.8 72.533333 8.533333 145.066667 59.733333 196.266667 29.866667 29.866667 68.266667 51.2 110.933333 59.733333 38.4 8.533333 81.066667 8.533333 119.466667-8.533333 21.333333-8.533333 46.933333 0 64 12.8l213.333333 213.333333c25.6 25.6 64 25.6 89.6 0 25.6-25.6 25.6-64 0-89.6l-213.333333-213.333333c-17.066667-17.066667-21.333333-42.666667-12.8-64 12.8-38.4 17.066667-81.066667 8.533333-119.466667-8.533333-42.666667-29.866667-81.066667-59.733333-110.933333-51.2-51.2-123.733333-76.8-196.266667-64L448 213.333333c51.2 51.2 51.2 132.266667 0 179.2-51.2 51.2-132.266667 51.2-179.2 0L196.266667 332.8z"
        fill="#0066ff" />
    <path
        d="M810.666667 908.8c-34.133333 0-72.533333-12.8-98.133334-42.666667l-209.066666-209.066666c-51.2 17.066667-102.4 17.066667-153.6 8.533333-55.466667-12.8-106.666667-38.4-145.066667-81.066667C132.266667 512 102.4 409.6 123.733333 311.466667 128 285.866667 149.333333 264.533333 170.666667 256c25.6-8.533333 51.2 0 72.533333 17.066667l72.533333 72.533333c21.333333 21.333333 55.466667 21.333333 72.533334 0 21.333333-21.333333 21.333333-55.466667 0-72.533333L320 200.533333C298.666667 183.466667 294.4 153.6 298.666667 128c8.533333-25.6 29.866667-42.666667 55.466666-51.2 98.133333-21.333333 200.533333 8.533333 273.066667 81.066667 38.4 38.4 68.266667 89.6 81.066667 145.066666 12.8 51.2 8.533333 102.4-8.533334 153.6l209.066667 209.066667c55.466667 55.466667 55.466667 140.8 0 196.266667-25.6 29.866667-64 46.933333-98.133333 46.933333z m-298.666667-277.333333l217.6 217.6c46.933333 46.933333 119.466667 46.933333 166.4 0s46.933333-119.466667 0-166.4l-221.866667-213.333334 4.266667-8.533333c17.066667-46.933333 17.066667-98.133333 8.533333-149.333333-12.8-51.2-38.4-98.133333-72.533333-136.533334-68.266667-64-162.133333-89.6-256-72.533333-17.066667 4.266667-29.866667 17.066667-38.4 34.133333-4.266667 17.066667 0 34.133333 12.8 46.933334L405.333333 256c29.866667 29.866667 29.866667 76.8 0 106.666667s-76.8 29.866667-106.666666 0L226.133333 290.133333c-12.8-12.8-29.866667-17.066667-46.933333-12.8-17.066667 8.533333-29.866667 21.333333-34.133333 38.4-17.066667 93.866667 8.533333 187.733333 76.8 251.733334 38.4 38.4 85.333333 64 136.533333 72.533333 51.2 12.8 102.4 8.533333 149.333333-8.533333h4.266667z m298.666667 213.333333c-21.333333 0-38.4-8.533333-51.2-21.333333l-213.333334-213.333334c-12.8-12.8-34.133333-17.066667-51.2-12.8-42.666667 12.8-85.333333 17.066667-128 8.533334s-85.333333-29.866667-115.2-64C196.266667 486.4 170.666667 405.333333 183.466667 332.8l4.266666-21.333333 81.066667 81.066666c25.6 21.333333 55.466667 34.133333 85.333333 34.133334A116.565333 116.565333 0 0 0 469.333333 311.466667c0-29.866667-12.8-59.733333-34.133333-81.066667l-81.066667-85.333333 21.333334-4.266667c76.8-12.8 153.6 12.8 209.066666 64 29.866667 29.866667 55.466667 72.533333 64 115.2 8.533333 42.666667 8.533333 85.333333-8.533333 128-4.266667 17.066667 0 38.4 12.8 51.2l213.333333 213.333333c29.866667 29.866667 29.866667 76.8 0 106.666667-17.066667 17.066667-34.133333 25.6-55.466666 25.6z m-302.933334-277.333333c17.066667 0 38.4 8.533333 51.2 21.333333l213.333334 213.333333c21.333333 21.333333 55.466667 21.333333 72.533333 0 21.333333-21.333333 21.333333-55.466667 0-72.533333l-213.333333-213.333333c-21.333333-21.333333-25.6-46.933333-17.066667-72.533334 12.8-38.4 17.066667-76.8 8.533333-115.2-8.533333-38.4-29.866667-76.8-55.466666-102.4-42.666667-42.666667-102.4-64-166.4-59.733333L452.266667 213.333333c25.6 25.6 42.666667 59.733333 42.666666 98.133334 0 38.4-12.8 72.533333-42.666666 98.133333-25.6 25.6-59.733333 42.666667-98.133334 42.666667-38.4 0-72.533333-12.8-98.133333-42.666667L204.8 358.4c-4.266667 59.733333 17.066667 119.466667 59.733333 166.4 29.866667 29.866667 64 46.933333 102.4 55.466667 38.4 8.533333 76.8 4.266667 115.2-8.533334 8.533333 0 17.066667-4.266667 25.6-4.266666z"
        fill="#0066ff" />
</svg>