<?xml version="1.0" standalone="no"?><!DOCTYPE svg PUBLIC "-//W3C//DTD SVG 1.1//EN" "http://www.w3.org/Graphics/SVG/1.1/DTD/svg11.dtd">
<svg class="icon" width="64" height="64" viewBox="0 0 1024 1024" version="1.1" xmlns="http://www.w3.org/2000/svg">
    <path
        d="M485.052632 614.292211V269.473684a26.947368 26.947368 0 0 1 53.894736 0v343.525053a107.789474 107.789474 0 1 1-53.894736 1.293474z m296.421052 75.560421c0 154.785684-120.670316 280.252632-269.473684 280.252631s-269.473684-125.466947-269.473684-280.252631c0-99.220211 49.583158-186.368 124.389052-236.220632V252.874105a145.084632 145.084632 0 1 1 290.169264 0v200.757895C731.890526 503.484632 781.473684 590.686316 781.473684 689.852632z m-178.283789-436.978527a91.189895 91.189895 0 0 0-182.37979 0v229.645474l-24.037052 16.006737C334.848 539.755789 296.421053 611.166316 296.421053 689.852632c0 125.466947 97.010526 226.357895 215.578947 226.357894s215.578947-100.890947 215.578947-226.357894c0-78.686316-38.426947-150.096842-100.352-191.326316l-24.037052-16.006737v-229.591579z"
        fill="#0066ff" />
</svg>