<svg width="13" height="13" viewBox="0 0 13 13" fill="none" xmlns="http://www.w3.org/2000/svg">
<path d="M6.5 2.99023C5.92813 2.99023 5.37968 3.21741 4.9753 3.62179C4.57093 4.02616 4.34375 4.57461 4.34375 5.14648C4.34375 5.71836 4.57093 6.26681 4.9753 6.67118C5.37968 7.07556 5.92813 7.30273 6.5 7.30273C7.07187 7.30273 7.62032 7.07556 8.0247 6.67118C8.42907 6.26681 8.65625 5.71836 8.65625 5.14648C8.65625 4.57461 8.42907 4.02616 8.0247 3.62179C7.62032 3.21741 7.07187 2.99023 6.5 2.99023ZM6.5 4.05273C6.64363 4.05273 6.78586 4.08103 6.91856 4.13599C7.05126 4.19096 7.17183 4.27152 7.2734 4.37309C7.37496 4.47465 7.45553 4.59522 7.51049 4.72792C7.56546 4.86062 7.59375 5.00285 7.59375 5.14648C7.59375 5.29012 7.56546 5.43234 7.51049 5.56504C7.45553 5.69774 7.37496 5.81832 7.2734 5.91988C7.17183 6.02145 7.05126 6.10201 6.91856 6.15698C6.78586 6.21194 6.64363 6.24023 6.5 6.24023C6.20992 6.24023 5.93172 6.125 5.7266 5.91988C5.52148 5.71476 5.40625 5.43657 5.40625 5.14648C5.40625 4.8564 5.52148 4.5782 5.7266 4.37309C5.93172 4.16797 6.20992 4.05273 6.5 4.05273Z" fill="#B6B6B6" stroke="#B6B6B6" stroke-width="0.25"/>
<path d="M6.50033 0.28125C3.72027 0.28125 1.63574 2.35167 1.63574 5.28937C1.63574 6.30336 2.02157 7.41311 2.77301 8.62121C3.52476 9.8298 4.64715 11.1444 6.13235 12.5707C6.23129 12.6657 6.36315 12.7188 6.50033 12.7188C6.6375 12.7188 6.76936 12.6657 6.8683 12.5707C8.3535 11.1444 9.47589 9.8298 10.2276 8.62121C10.9791 7.41311 11.3649 6.30336 11.3649 5.28937C11.3649 2.35167 9.28038 0.28125 6.50033 0.28125ZM6.50033 1.34375C7.60001 1.34375 8.54881 1.74435 9.22273 2.43378C9.89654 3.12309 10.3022 4.10803 10.3024 5.28854C10.3024 5.28882 10.3024 5.2891 10.3024 5.28937L10.3014 5.36424C10.3014 5.36445 10.3014 5.36466 10.3013 5.36487C10.2819 6.13213 9.96682 7.02502 9.33657 8.04217C8.70681 9.05852 7.76746 10.1908 6.51197 11.4344C6.5119 11.4345 6.51183 11.4345 6.51175 11.4346L6.50033 11.4458L6.4889 11.4346C6.48883 11.4345 6.48875 11.4345 6.48868 11.4344C5.21265 10.1702 4.2632 9.02125 3.63343 7.99218C3.00298 6.96199 2.69824 6.06067 2.69824 5.28937C2.69824 4.1085 3.10395 3.12325 3.77792 2.43378C4.45184 1.74435 5.40064 1.34375 6.50033 1.34375Z" fill="#B6B6B6" stroke="#B6B6B6" stroke-width="0.25"/>
</svg>
