<svg width="14" height="14" viewBox="0 0 14 14" fill="none" xmlns="http://www.w3.org/2000/svg">
<g id="location">
<g id="ico-location">
<path id="icongraphic" d="M10.9935 2.13731C9.99313 1.1369 8.66313 0.585938 7.24825 0.585938C5.83352 0.585938 4.50338 1.1369 3.50296 2.13731C1.43782 4.2026 1.43782 7.56275 3.50296 9.6279C4.40115 10.5262 6.78931 13.1978 6.81323 13.2246C6.92334 13.3478 7.0804 13.4185 7.24548 13.4193C7.41246 13.4193 7.56894 13.35 7.67963 13.2285C7.70588 13.1998 10.3137 10.3356 11.0016 9.61958C13.0556 7.4824 13.052 4.19575 10.9935 2.13731ZM10.1604 8.81123C9.62869 9.36481 8.03167 11.1112 7.25175 11.9662C6.51179 11.1434 5.0205 9.49562 4.32809 8.80306C2.71779 7.19277 2.71779 4.57258 4.32809 2.96229C5.108 2.18223 6.14517 1.7526 7.24825 1.7526C8.35134 1.7526 9.38865 2.18223 10.1686 2.96229C11.7735 4.56719 11.77 7.13633 10.1604 8.81123ZM8.48579 4.58425C9.16917 5.26762 9.16917 6.37567 8.48579 7.05919C7.80242 7.74256 6.69438 7.74256 6.01086 7.05919C5.32734 6.37581 5.32748 5.26777 6.01086 4.58425C6.69423 3.90087 7.80227 3.90087 8.48579 4.58425Z" fill="#566066"/>
</g>
</g>
</svg>
