<?xml version="1.0" standalone="no"?><!DOCTYPE svg PUBLIC "-//W3C//DTD SVG 1.1//EN" "http://www.w3.org/Graphics/SVG/1.1/DTD/svg11.dtd"><svg class="icon" width="256px" height="256.00px" viewBox="0 0 1024 1024" version="1.1" xmlns="http://www.w3.org/2000/svg"><path d="M931.84 343.04v465.92c0 45.24544-36.67456 81.92-81.92 81.92H174.08c-45.24544 0-81.92-36.67456-81.92-81.92V343.04h839.68z m-332.8 87.04H409.6a30.72 30.72 0 0 0-30.72 30.72v20.48a30.72 30.72 0 0 0 30.72 30.72h129.60768l-108.3904 212.74624a30.72 30.72 0 0 0 13.41952 41.3184l9.12384 4.64896a30.72 30.72 0 0 0 41.3184-13.42464l139.4688-273.7152a30.73536 30.73536 0 0 0-8.56064-38.2464A30.70464 30.70464 0 0 0 599.04 430.08z m102.4-296.96c26.08128 0 48.91136 16.41472 61.45024 40.96H865.28c36.7616 0 66.56 29.7984 66.56 66.56v61.44H92.16V240.64c0-36.7616 29.7984-66.56 66.56-66.56h102.38976c12.544-24.54528 35.36896-40.96 61.45024-40.96s48.91136 16.41472 61.45024 40.96h255.97952c12.544-24.54528 35.36896-40.96 61.45024-40.96z m20.48 40.96h-40.96v87.04h40.96V174.08z m-378.88 0h-40.96v87.04h40.96V174.08z" fill="#0066ff" /></svg>