<svg width="15" height="16" viewBox="0 0 15 16" fill="none" xmlns="http://www.w3.org/2000/svg">
<path d="M13.1818 3.74958H11.2487C11.2487 1.68229 9.56646 0 7.49916 0C5.43187 0 3.74958 1.68062 3.74958 3.74958V3.75126H1.87479C0.839373 3.75126 0 4.59063 0 5.62605V13.7513C0 14.4426 0.559089 15.0017 1.25042 15.0017H13.7496C14.4392 15.0017 15 14.4426 15 13.7513V12.5025H0V11.1722H14.9983V5.56612C14.9983 4.56287 14.185 3.74958 13.1818 3.74958ZM9.99833 3.74958H5C5 2.37194 6.12153 1.25042 7.49916 1.25042C8.8768 1.25042 9.99833 2.37027 9.99833 3.74958Z" fill="white"/>
</svg>
